<?xml version="1.0" encoding="UTF-8" standalone="no"?>
<svg
   id="Export_paths_29.6.2025"
   version="1.1"
   viewBox="0 0 608.6 576.2"
   sodipodi:docname="Butterfly_Front_Outline.svg"
   inkscape:version="1.4.2 (ebf0e940d0, 2025-05-08)"
   xmlns:inkscape="http://www.inkscape.org/namespaces/inkscape"
   xmlns:sodipodi="http://sodipodi.sourceforge.net/DTD/sodipodi-0.dtd"
   xmlns="http://www.w3.org/2000/svg"
   xmlns:svg="http://www.w3.org/2000/svg">
  <sodipodi:namedview
     id="namedview1"
     pagecolor="#ffffff"
     bordercolor="#666666"
     borderopacity="1.0"
     inkscape:showpageshadow="2"
     inkscape:pageopacity="0.0"
     inkscape:pagecheckerboard="0"
     inkscape:deskcolor="#d1d1d1"
     inkscape:zoom="1.9507115"
     inkscape:cx="304.24796"
     inkscape:cy="370.12136"
     inkscape:window-width="3440"
     inkscape:window-height="1335"
     inkscape:window-x="0"
     inkscape:window-y="0"
     inkscape:window-maximized="1"
     inkscape:current-layer="Export_paths_29.6.2025" />
  <!-- Generator: Adobe Illustrator 29.6.0, SVG Export Plug-In . SVG Version: 2.1.1 Build 207)  -->
  <defs
     id="defs1">
    <style
       id="style1">
      .st0 {
        fill: #e3ba4d;
      }

      .st1 {
        fill: #fff;
      }

      .st2 {
        fill: #939598;
      }

      .st3 {
        fill: #2e3192;
      }
    </style>
  </defs>
  <path
     id="Platine"
     class="st2"
     d="M 606.1,96.8 C 609.3,71.1 612.1,45.9 596.8,28 565.3,-8.8 481.3,13.3 435,36 401.7,52.3 378.6,73.6 364.3,89 356.1,88.5 347.9,87.9 339.7,87.4 339.5,84 339,79.7 337.8,75 c -1,-4 -2.4,-7.4 -3.7,-10.2 3.9,-2.3 14.4,-9.2 18.2,-22 4.9,-16.9 -3.6,-38.6 -16.6,-41.6 -4.4,-1 -8.8,0.3 -12.4,2.2 -1.7,-0.8 -3.6,-1.6 -5.7,-2.3 -5,-1.6 -9.8,-2.1 -13.3,-2.2 -3.5,0 -8.3,0.6 -13.3,2.2 -2.1,0.7 -4,1.5 -5.7,2.3 -3.6,-1.9 -8,-3.2 -12.4,-2.2 -13,2.9 -21.5,24.7 -16.6,41.6 3.7,12.8 14.3,19.7 18.2,22 -1.3,2.8 -2.6,6.2 -3.7,10.2 -1.2,4.7 -1.7,9 -1.9,12.4 -8.2,0.5 -16.4,1.1 -24.6,1.6 C 230.1,73.6 206.9,52.3 173.6,36 127.4,13.2 43.3,-8.9 11.8,27.9 -3.5,45.9 -0.7,71.1 2.5,96.8 12.3,175 59.3,231.3 90,261.3 51,311.9 46.8,347.7 52.7,372.7 c 2.9,12.1 8,21.2 14.1,28.8 v 0 c 7.9,12 19.1,32.6 23.7,60.3 6.8,40.9 -4.5,73.7 -10.9,88.7 -0.2,0.6 -0.5,1.1 -0.7,1.6 -4.6,10.8 -6.6,18.8 -2.1,22.4 2.8,2.2 6.5,1.7 6.7,1.7 4.6,-0.7 7.2,-5.1 9.4,-11.9 v 0 c 9,-23.3 25,-56.8 53.7,-90.4 21.9,-25.6 44.5,-43.6 62.4,-55.7 0.2,-0.2 0.5,-0.3 0.7,-0.5 8.4,-5.7 17,-12.6 25.7,-22.1 8.7,-9.5 14.5,-18.1 17.7,-23.3 h 24.5 c 1.6,7.5 3.4,13.5 4.8,17.6 4.9,14.9 9,26.9 18.4,30.1 1.6,0.5 2.9,0.7 3.7,0.7 0.8,0 2.1,-0.2 3.7,-0.7 9.4,-3.2 13.5,-15.1 18.4,-30.1 1.3,-4.1 3.1,-10.1 4.8,-17.5 h 24.5 c 3.2,5.1 9,13.8 17.7,23.2 8.7,9.5 17.2,16.4 25.7,22.1 0.2,0.2 0.5,0.3 0.7,0.5 17.9,12.1 40.5,30.1 62.4,55.7 28.7,33.7 44.8,67.1 53.8,90.4 v 0 c 2.1,6.8 4.7,11.2 9.4,11.9 0.2,0 3.9,0.6 6.7,-1.7 4.8,-3.8 2.2,-12.5 -3,-24.3 0,-0.1 -0.1,-0.2 -0.1,-0.3 -6.4,-15.2 -17.4,-47.8 -10.7,-88.1 4.6,-27.7 15.8,-48.3 23.7,-60.3 6,-7.7 11.2,-16.7 14,-28.8 5.9,-25 1.8,-60.8 -37.3,-111.4 30.7,-30 77.8,-86.3 87.5,-164.5 z m -362.9,186 c -4.2,-18 -7.9,-39.9 -9.2,-64.8 -1.1,-22 -0.2,-41.8 1.7,-58.5 h 26.8 c -0.6,19 -0.4,39.7 0.8,61.8 1.2,22.1 3.5,42.7 6.2,61.5 z m 131.4,-64.9 c -1.3,25 -5,46.8 -9.2,64.8 h -26.3 c 2.7,-18.8 4.9,-39.4 6.2,-61.5 1.2,-22.1 1.4,-42.8 0.8,-61.8 h 26.8 c 1.8,16.8 2.8,36.5 1.7,58.5 z" />
</svg>
