<?xml version="1.0" encoding="UTF-8" standalone="no"?>
<svg
   id="Export_paths_29.6.2025"
   version="1.1"
   viewBox="0 0 608.4 577.3"
   sodipodi:docname="Butterfly_Back_Silkscreen.svg"
   inkscape:version="1.4.2 (ebf0e940d0, 2025-05-08)"
   xmlns:inkscape="http://www.inkscape.org/namespaces/inkscape"
   xmlns:sodipodi="http://sodipodi.sourceforge.net/DTD/sodipodi-0.dtd"
   xmlns="http://www.w3.org/2000/svg"
   xmlns:svg="http://www.w3.org/2000/svg">
  <sodipodi:namedview
     id="namedview1"
     pagecolor="#ffffff"
     bordercolor="#666666"
     borderopacity="1.0"
     inkscape:showpageshadow="2"
     inkscape:pageopacity="0.0"
     inkscape:pagecheckerboard="0"
     inkscape:deskcolor="#d1d1d1"
     inkscape:zoom="1.9469947"
     inkscape:cx="304.31516"
     inkscape:cy="288.64999"
     inkscape:window-width="3440"
     inkscape:window-height="1335"
     inkscape:window-x="0"
     inkscape:window-y="0"
     inkscape:window-maximized="1"
     inkscape:current-layer="Export_paths_29.6.2025" />
  <!-- Generator: Adobe Illustrator 29.6.0, SVG Export Plug-In . SVG Version: 2.1.1 Build 207)  -->
  <defs
     id="defs1">
    <style
       id="style1">
      .st0 {
        fill: #e3ba4d;
      }

      .st1 {
        fill: #fff;
      }

      .st2 {
        fill: #939598;
      }

      .st3 {
        fill: #2e3192;
      }
    </style>
  </defs>
  <path
     id="Silkscreen"
     class="st1"
     d="m 268.3,88.4 c -1.7,7.9 -3.1,16.4 -4.2,25.5 -2.1,17.1 -2.6,32.8 -2.2,46.6 -8.9,0 -17.9,0 -26.8,0 0.2,-13.7 1.3,-29.1 3.9,-45.6 1.4,-8.8 3,-17.1 4.8,-24.9 8.2,-0.5 16.4,-1.1 24.6,-1.6 z m 0.5,195.5 h -26.3 c 1.2,4.7 2.3,9.5 3.3,14.4 5.6,27.1 7.1,52.5 6.4,75.1 8.2,0 16.3,0 24.5,0 -0.8,-5.5 -1.5,-11.1 -2.1,-16.7 -3,-25.1 -4.8,-49.4 -5.8,-72.7 z M 82.9,574.7 c 2.1,-0.7 3.1,-2.6 4.2,-4.8 2.5,-5 2.1,-10 0.9,-12.4 -0.3,-0.7 -1.1,-2.3 -2.6,-2.6 0,0 -0.3,0 -0.6,0 -1.9,0 -7.4,4 -8.7,10.7 -0.4,2.1 -1,5.7 1.2,7.9 1.4,1.3 3.7,1.9 5.6,1.3 z M 339.1,88.4 c 1.7,7.9 3.1,16.4 4.2,25.5 2.1,17.1 2.6,32.8 2.2,46.6 8.9,0 17.9,0 26.8,0 -0.2,-13.7 -1.3,-29.1 -3.9,-45.6 -1.4,-8.8 -3,-17.1 -4.8,-24.9 -8.2,-0.5 -16.4,-1.1 -24.6,-1.6 z m -6.3,268.2 c -0.7,5.6 -1.4,11.2 -2.1,16.7 8.2,0 16.3,0 24.5,0 -0.7,-22.6 0.8,-47.9 6.4,-75.1 1,-4.9 2.1,-9.7 3.3,-14.4 h -26.3 c -0.9,23.3 -2.8,47.6 -5.8,72.7 z M 293.6,56 c 0.3,0 0.6,-0.3 0.6,-0.7 0,-0.4 -0.2,-0.7 -0.5,-0.8 -0.3,-0.1 -0.6,0.3 -0.6,0.7 0,0.4 0.2,0.7 0.5,0.8 z m -0.4,-3.6 c 0,-0.4 0.3,-0.7 0.6,-0.7 0.3,0 0.5,0.3 0.5,0.7 0,0.4 -0.3,0.7 -0.6,0.7 -0.3,0 -0.5,-0.3 -0.5,-0.7 z m 0,-2.9 c 0,-0.4 0.2,-0.7 0.5,-0.7 0.3,0 0.6,0.3 0.6,0.7 0,0.4 -0.2,0.7 -0.5,0.7 -0.3,0 -0.5,-0.3 -0.5,-0.7 z m -0.1,-2.9 c 0,-0.4 0.2,-0.7 0.5,-0.7 0.3,0 0.6,0.3 0.6,0.7 0,0.4 -0.2,0.7 -0.5,0.7 -0.3,0 -0.6,-0.3 -0.6,-0.7 z M 293,43.7 c 0,-0.4 0.2,-0.7 0.5,-0.8 0.3,0 0.6,0.3 0.6,0.7 0,0.4 -0.2,0.7 -0.5,0.8 -0.3,0 -0.6,-0.3 -0.6,-0.7 z m -0.3,-2.9 c 0,-0.4 0.2,-0.7 0.5,-0.8 0.3,0 0.6,0.3 0.6,0.7 0,0.4 -0.2,0.8 -0.5,0.8 -0.3,0 -0.6,-0.3 -0.6,-0.7 z m -0.3,-2.9 c 0,-0.4 0.1,-0.8 0.4,-0.8 0.3,0 0.6,0.2 0.6,0.7 0,0.4 -0.1,0.8 -0.4,0.8 -0.3,0 -0.6,-0.3 -0.6,-0.7 z M 292,35.1 c 0,-0.4 0.1,-0.8 0.4,-0.8 0.3,0 0.6,0.2 0.7,0.6 0,0.4 -0.1,0.8 -0.4,0.8 -0.3,0 -0.6,-0.2 -0.6,-0.6 z m -0.5,-2.9 c 0,-0.4 0,-0.8 0.4,-0.8 0.3,0 0.6,0.2 0.7,0.6 0,0.4 0,0.8 -0.4,0.8 -0.3,0 -0.6,-0.2 -0.7,-0.6 z m -0.6,-2.8 c 0,-0.4 0,-0.8 0.4,-0.8 0.4,0 0.6,0.2 0.7,0.6 0,0.4 0,0.8 -0.4,0.8 -0.3,0 -0.6,-0.2 -0.7,-0.6 z m -0.7,-2.8 c 0,-0.4 0,-0.8 0.3,-0.8 0.3,0 0.6,0.2 0.7,0.6 0,0.4 0,0.8 -0.3,0.8 -0.3,0 -0.6,-0.2 -0.7,-0.6 z m -0.8,-2.8 c -0.1,-0.4 0,-0.8 0.3,-0.9 0.3,0 0.6,0.2 0.7,0.5 0.1,0.4 0,0.8 -0.3,0.9 -0.3,0 -0.6,-0.2 -0.7,-0.5 z M 288.6,21 c -0.1,-0.4 0,-0.8 0.3,-0.9 0.3,0 0.6,0.1 0.7,0.5 0.1,0.4 0,0.8 -0.3,0.9 -0.3,0 -0.6,-0.1 -0.7,-0.5 z m -1,-2.7 c -0.1,-0.4 0,-0.8 0.3,-0.9 0.3,-0.1 0.6,0.1 0.8,0.5 0.1,0.4 0,0.8 -0.3,0.9 -0.3,0.1 -0.6,-0.1 -0.8,-0.5 z m -1,-2.7 c -0.1,-0.4 0,-0.8 0.2,-0.9 0.3,-0.1 0.6,0.1 0.8,0.5 0.2,0.4 0,0.8 -0.2,0.9 -0.3,0.1 -0.6,-0.1 -0.8,-0.5 z m -1.1,-2.7 c -0.2,-0.4 0,-0.8 0.2,-0.9 0.3,-0.1 0.6,0 0.8,0.5 0.2,0.4 0,0.8 -0.2,0.9 -0.3,0.1 -0.6,0 -0.8,-0.5 z m -1.2,-2.7 c -0.2,-0.4 0,-0.8 0.2,-0.9 0.3,-0.1 0.6,0 0.8,0.4 0.2,0.4 0,0.8 -0.2,0.9 -0.3,0.1 -0.6,0 -0.8,-0.4 z M 283,7.6 c -0.2,-0.4 -0.1,-0.8 0.2,-0.9 0.3,-0.1 0.6,0 0.8,0.4 0.2,0.4 0.1,0.8 -0.2,0.9 -0.3,0.1 -0.6,0 -0.8,-0.4 z m -1.3,-2.5 c -0.2,-0.4 -0.1,-0.8 0.1,-0.9 0.3,-0.1 0.6,0 0.8,0.4 0.2,0.4 0.1,0.8 -0.1,0.9 -0.3,0.1 -0.6,0 -0.8,-0.4 z m -3.3,-1.4 c 0.2,0.4 0.2,0.8 -0.1,0.9 -0.3,0.1 -0.6,0 -0.8,-0.4 -0.2,-0.4 -0.2,-0.8 0,-0.9 0.3,-0.2 0.6,0 0.8,0.4 z m 1.4,2.6 c 0.2,0.4 0.1,0.8 -0.1,0.9 -0.3,0.1 -0.6,0 -0.8,-0.4 -0.2,-0.4 -0.1,-0.8 0.1,-0.9 0.3,-0.1 0.6,0 0.8,0.4 z m 1.4,2.6 c 0.2,0.4 0.1,0.8 -0.2,0.9 -0.3,0.1 -0.6,0 -0.8,-0.4 -0.2,-0.4 -0.1,-0.8 0.2,-0.9 0.3,-0.1 0.6,0 0.8,0.4 z m 1.3,2.7 c 0.2,0.4 0,0.8 -0.2,0.9 -0.3,0.1 -0.6,0 -0.8,-0.4 -0.2,-0.4 0,-0.8 0.2,-0.9 0.2,-0.1 0.6,0 0.8,0.4 z m 1.2,2.8 c 0.2,0.4 0,0.8 -0.2,0.9 -0.2,0.1 -0.6,0 -0.8,-0.5 -0.2,-0.4 0,-0.8 0.2,-0.9 0.3,-0.1 0.6,0 0.8,0.5 z m 1.2,2.8 c 0.2,0.4 0,0.8 -0.2,0.9 -0.3,0.1 -0.6,-0.1 -0.8,-0.5 -0.2,-0.4 0,-0.8 0.2,-0.9 0.3,-0.1 0.6,0.1 0.8,0.5 z m 1,2.8 c 0.1,0.4 0,0.8 -0.3,0.9 -0.3,0 -0.6,-0.1 -0.8,-0.5 -0.2,-0.4 0,-0.8 0.3,-0.9 0.3,-0.1 0.6,0.1 0.8,0.5 z m 1,2.8 c 0.1,0.4 0,0.8 -0.3,0.9 -0.3,0.1 -0.6,-0.2 -0.7,-0.5 -0.1,-0.4 0,-0.8 0.3,-0.9 0.3,0 0.6,0.1 0.8,0.5 z m 0.9,2.9 c 0.1,0.4 0,0.8 -0.3,0.9 -0.3,0 -0.6,-0.2 -0.7,-0.6 -0.1,-0.4 0,-0.8 0.3,-0.9 0.3,-0.1 0.6,0.2 0.7,0.6 z m 0.8,2.9 c 0.1,0.4 0,0.8 -0.3,0.9 -0.3,0 -0.6,-0.2 -0.7,-0.6 -0.1,-0.4 0,-0.8 0.3,-0.9 0.3,0 0.6,0.2 0.7,0.6 z m 0.7,2.9 c 0,0.4 0,0.8 -0.4,0.9 -0.4,0.1 -0.6,-0.2 -0.7,-0.6 0,-0.4 0,-0.8 0.4,-0.8 0.3,0 0.6,0.2 0.7,0.6 z m 0.7,2.9 c 0,0.4 0,0.8 -0.4,0.8 -0.3,0 -0.6,-0.2 -0.7,-0.6 -0.1,-0.4 0,-0.8 0.4,-0.8 0.3,0 0.6,0.2 0.7,0.6 z m 0.5,2.9 c 0,0.4 -0.1,0.8 -0.4,0.8 -0.3,0 -0.6,-0.2 -0.7,-0.6 0,-0.4 0.1,-0.8 0.4,-0.8 0.3,0 0.6,0.2 0.7,0.6 z m 0.5,3 c 0,0.4 -0.1,0.8 -0.4,0.8 -0.3,0 -0.6,-0.3 -0.6,-0.7 0,-0.4 0.1,-0.8 0.4,-0.8 0.3,0 0.6,0.3 0.6,0.7 z m 0.4,3 c 0,0.4 -0.2,0.8 -0.5,0.8 -0.3,0 -0.6,-0.3 -0.6,-0.7 0,-0.4 0.2,-0.8 0.5,-0.8 0.3,0 0.6,0.3 0.6,0.7 z m 0.2,3 c 0,0.4 -0.2,0.8 -0.5,0.8 -0.3,0 -0.6,-0.3 -0.6,-0.7 0,-0.4 0.2,-0.8 0.5,-0.8 0.3,0 0.6,0.3 0.6,0.7 z m 0.2,3 c 0,0.4 -0.2,0.8 -0.5,0.8 -0.3,0 -0.6,-0.3 -0.6,-0.7 0,-0.4 0.2,-0.8 0.5,-0.8 0.3,0 0.6,0.3 0.6,0.7 z m 0.2,3 c 0,0.4 -0.2,0.8 -0.5,0.8 -0.3,0 -0.5,-0.3 -0.6,-0.7 0,-0.4 0.2,-0.7 0.5,-0.8 0.3,-0.1 0.5,0.3 0.6,0.7 z m 0,3 c 0,0.4 -0.2,0.7 -0.5,0.7 -0.3,0 -0.5,-0.3 -0.5,-0.7 0,-0.4 0.2,-0.7 0.5,-0.7 0.3,0 0.5,0.3 0.5,0.7 z M 274.3,3.8 c 0.2,0.3 0.2,0.7 0,0.9 -0.3,0.2 -0.6,0 -0.8,-0.3 -0.2,-0.3 -0.2,-0.7 0,-0.9 0.2,-0.2 0.6,0 0.8,0.3 z m 1.5,2.4 c 0.2,0.3 0.2,0.7 -0.1,0.9 -0.3,0.2 -0.6,0 -0.8,-0.3 -0.2,-0.3 -0.2,-0.7 0.1,-0.9 0.3,-0.2 0.6,0 0.8,0.3 z m 1.4,2.5 c 0.2,0.4 0.1,0.8 -0.1,0.9 -0.3,0.1 -0.6,0 -0.8,-0.4 -0.2,-0.3 -0.1,-0.7 0.1,-0.9 0.3,-0.1 0.6,0 0.8,0.4 z m 1.4,2.6 c 0.2,0.4 0.1,0.8 -0.2,0.9 -0.3,0.1 -0.6,0 -0.8,-0.4 -0.2,-0.3 -0.1,-0.7 0.1,-0.9 0.3,-0.1 0.6,0 0.8,0.4 z m 1.2,2.6 c 0.2,0.4 0,0.8 -0.2,0.9 -0.2,0.1 -0.6,0 -0.8,-0.4 -0.2,-0.4 0,-0.8 0.2,-0.9 0.3,-0.1 0.6,0 0.8,0.4 z m 1.2,2.6 c 0.2,0.4 0,0.8 -0.2,0.9 -0.3,0.1 -0.6,0 -0.8,-0.4 -0.2,-0.4 0,-0.8 0.2,-0.9 0.3,-0.1 0.6,0 0.8,0.4 z m 1.2,2.7 c 0.1,0.4 0,0.8 -0.2,0.9 -0.3,0.1 -0.6,0 -0.8,-0.5 -0.1,-0.4 0,-0.8 0.2,-0.9 0.3,-0.1 0.6,0 0.8,0.5 z m 1,2.7 c 0.1,0.4 0,0.8 -0.3,0.9 -0.3,0.1 -0.6,-0.1 -0.8,-0.5 -0.1,-0.4 0,-0.8 0.3,-0.9 0.3,-0.1 0.6,0.1 0.8,0.5 z m 1,2.7 c 0.1,0.4 0,0.8 -0.3,0.9 -0.3,0 -0.6,-0.1 -0.7,-0.5 -0.1,-0.4 0,-0.8 0.3,-0.9 0.3,0 0.6,0.1 0.7,0.5 z m 0.8,2.8 c 0.1,0.4 0,0.8 -0.3,0.8 -0.3,0 -0.6,-0.2 -0.7,-0.5 -0.1,-0.4 0,-0.8 0.3,-0.8 0.3,0 0.6,0.1 0.7,0.5 z m 0.8,2.7 c 0.1,0.4 0,0.8 -0.3,0.8 -0.3,0 -0.6,-0.2 -0.7,-0.6 -0.1,-0.4 0,-0.8 0.3,-0.8 0.3,0 0.6,0.2 0.7,0.6 z m 0.7,2.8 c 0,0.4 0,0.8 -0.4,0.8 -0.3,0 -0.6,-0.2 -0.7,-0.6 0,-0.4 0,-0.8 0.4,-0.8 0.3,0 0.6,0.2 0.7,0.6 z m 0.7,2.9 c 0,0.4 0,0.8 -0.4,0.8 -0.3,0 -0.6,-0.2 -0.7,-0.6 0,-0.4 0,-0.8 0.4,-0.8 0.3,0 0.6,0.2 0.7,0.6 z m 0.5,2.8 c 0,0.4 -0.1,0.8 -0.4,0.8 -0.3,0 -0.6,-0.2 -0.7,-0.6 0,-0.4 0.1,-0.7 0.4,-0.8 0.3,0 0.6,0.2 0.7,0.6 z m 0.4,2.9 c 0,0.4 -0.1,0.7 -0.4,0.8 -0.3,0.1 -0.6,-0.2 -0.6,-0.6 0,-0.4 0.1,-0.7 0.4,-0.8 0.3,0 0.6,0.2 0.6,0.6 z m 0.4,2.8 c 0,0.4 -0.2,0.7 -0.5,0.8 -0.3,0 -0.6,-0.3 -0.6,-0.7 0,-0.4 0.2,-0.7 0.5,-0.8 0.3,0 0.6,0.3 0.6,0.7 z m 0.3,2.9 c 0,0.4 -0.2,0.7 -0.5,0.8 -0.3,0 -0.6,-0.3 -0.6,-0.7 0,-0.4 0.2,-0.7 0.5,-0.8 0.3,0 0.6,0.3 0.6,0.7 z m 0.2,2.9 c 0,0.4 -0.2,0.7 -0.5,0.7 -0.3,0 -0.6,-0.3 -0.6,-0.7 0,-0.4 0.2,-0.7 0.5,-0.7 0.3,0 0.6,0.3 0.6,0.7 z m 0.1,2.9 c 0,0.4 -0.2,0.7 -0.5,0.7 -0.3,0 -0.5,-0.3 -0.6,-0.7 0,-0.4 0.2,-0.7 0.5,-0.7 0.3,0 0.5,0.3 0.6,0.7 z m 0,2.9 c 0,0.4 -0.3,0.7 -0.5,0.7 -0.3,0 -0.5,-0.3 -0.5,-0.7 0,-0.4 0.3,-0.7 0.5,-0.7 0.3,0 0.5,0.3 0.5,0.7 z M 270.7,5.1 c 0.2,0.3 0.2,0.8 0,0.9 -0.3,0.2 -0.6,0 -0.9,-0.3 -0.2,-0.3 -0.2,-0.8 0,-0.9 0.2,-0.1 0.6,0 0.9,0.3 z m 1.6,2.6 c 0.2,0.4 0.2,0.8 0,0.9 -0.3,0.2 -0.6,0 -0.8,-0.4 -0.2,-0.4 -0.2,-0.8 0,-0.9 0.3,-0.2 0.6,0 0.9,0.4 z m 1.5,2.6 c 0.2,0.4 0.2,0.8 -0.1,0.9 -0.3,0.1 -0.6,0 -0.8,-0.4 -0.2,-0.4 -0.2,-0.8 0.1,-0.9 0.3,-0.1 0.6,0 0.8,0.4 z m 1.4,2.7 c 0.2,0.4 0.1,0.8 -0.1,0.9 -0.3,0.1 -0.6,0 -0.8,-0.4 -0.2,-0.4 -0.1,-0.8 0.1,-0.9 0.3,-0.1 0.6,0 0.8,0.4 z m 1.4,2.7 c 0.2,0.4 0.1,0.8 -0.2,0.9 -0.3,0.1 -0.6,0 -0.8,-0.4 -0.2,-0.4 -0.1,-0.8 0.2,-0.9 0.3,-0.1 0.6,0 0.8,0.4 z m 1.3,2.7 c 0.2,0.4 0,0.8 -0.2,0.9 -0.3,0.1 -0.6,0 -0.8,-0.5 -0.2,-0.4 0,-0.8 0.2,-0.9 0.3,-0.1 0.6,0 0.8,0.5 z m 1.2,2.8 c 0.2,0.4 0,0.8 -0.2,0.9 -0.3,0.1 -0.6,-0.1 -0.8,-0.5 -0.2,-0.4 0,-0.8 0.2,-0.9 0.3,-0.1 0.6,0.1 0.8,0.5 z m 1.1,2.8 c 0.2,0.4 0,0.8 -0.2,0.9 -0.3,0.1 -0.6,-0.1 -0.8,-0.5 -0.1,-0.4 0,-0.8 0.2,-0.9 0.3,-0.1 0.6,0.1 0.8,0.5 z m 1,2.8 c 0.1,0.4 0,0.8 -0.3,0.9 -0.3,0 -0.6,-0.1 -0.8,-0.5 -0.1,-0.4 0,-0.8 0.3,-0.9 0.3,0 0.6,0.1 0.8,0.5 z m 0.9,2.9 c 0.1,0.4 0,0.8 -0.3,0.9 -0.3,0 -0.6,-0.2 -0.7,-0.6 -0.1,-0.4 0,-0.8 0.3,-0.9 0.3,0 0.6,0.2 0.7,0.6 z m 0.8,2.9 c 0.1,0.4 0,0.8 -0.3,0.9 -0.3,0 -0.6,-0.2 -0.7,-0.6 -0.1,-0.4 0,-0.8 0.3,-0.9 0.3,-0.1 0.6,0.2 0.7,0.6 z m 0.8,2.9 c 0,0.4 0,0.8 -0.4,0.9 -0.3,0 -0.6,-0.2 -0.7,-0.6 0,-0.4 0,-0.8 0.4,-0.9 0.3,0 0.6,0.2 0.7,0.6 z m 0.6,3 c 0,0.4 0,0.8 -0.4,0.8 -0.3,0 -0.6,-0.2 -0.7,-0.6 0,-0.4 0,-0.8 0.4,-0.8 0.4,0 0.6,0.2 0.7,0.6 z m 0.6,3 c 0,0.4 -0.1,0.8 -0.4,0.8 -0.3,0 -0.6,-0.2 -0.7,-0.6 0,-0.4 0.1,-0.8 0.4,-0.8 0.3,0 0.6,0.2 0.7,0.6 z m 0.5,2.9 c 0,0.4 -0.1,0.8 -0.4,0.8 -0.3,0 -0.6,-0.3 -0.6,-0.7 0,-0.4 0.1,-0.8 0.4,-0.8 0.3,0 0.6,0.3 0.6,0.7 z m 0.4,3 c 0,0.4 -0.2,0.8 -0.5,0.8 -0.3,0 -0.6,-0.3 -0.6,-0.7 0,-0.4 0.2,-0.8 0.4,-0.8 0.3,0 0.6,0.3 0.6,0.7 z m 0.3,3 c 0,0.4 -0.2,0.8 -0.5,0.8 -0.3,0 -0.6,-0.3 -0.6,-0.7 0,-0.4 0.2,-0.8 0.5,-0.8 0.3,0 0.6,0.3 0.6,0.7 z m 0.2,3.1 c 0,0.4 -0.2,0.8 -0.5,0.8 -0.3,0 -0.6,-0.3 -0.6,-0.7 0,-0.4 0.2,-0.8 0.5,-0.8 0.3,0 0.6,0.3 0.6,0.7 z m 0.1,3 c 0,0.4 -0.2,0.8 -0.5,0.8 -0.3,0 -0.5,-0.3 -0.6,-0.7 0,-0.4 0.2,-0.8 0.5,-0.8 0.3,0 0.5,0.3 0.6,0.7 z m -19,-49.2 c 0.2,0.3 0.2,0.8 0,0.9 -0.3,0.2 -0.6,0 -0.9,-0.3 -0.2,-0.3 -0.2,-0.7 0,-0.9 0.2,-0.2 0.6,0 0.9,0.3 z m 1.6,2.5 c 0.2,0.3 0.2,0.8 0,0.9 -0.3,0.2 -0.6,0 -0.8,-0.3 -0.2,-0.3 -0.2,-0.8 0,-0.9 0.3,-0.2 0.6,0 0.9,0.3 z m 1.5,2.5 c 0.2,0.4 0.2,0.8 -0.1,0.9 -0.3,0.1 -0.6,0 -0.8,-0.4 -0.2,-0.4 -0.2,-0.8 0,-0.9 0.3,-0.2 0.6,0 0.8,0.4 z m 1.4,2.6 c 0.2,0.4 0.1,0.8 -0.1,0.9 -0.3,0.1 -0.6,0 -0.8,-0.4 -0.2,-0.4 -0.1,-0.8 0.1,-0.9 0.3,-0.1 0.6,0 0.8,0.4 z m 1.4,2.7 c 0.2,0.4 0.1,0.8 -0.2,0.9 -0.3,0.1 -0.6,0 -0.8,-0.4 -0.2,-0.4 -0.1,-0.8 0.1,-0.9 0.3,-0.1 0.6,0 0.8,0.4 z m 1.3,2.6 c 0.2,0.4 0,0.8 -0.2,0.9 -0.3,0.1 -0.6,0 -0.8,-0.4 -0.2,-0.4 0,-0.8 0.2,-0.9 0.3,-0.1 0.6,0 0.8,0.4 z m 1.2,2.8 c 0.2,0.4 0,0.8 -0.2,0.9 -0.3,0.1 -0.6,0 -0.8,-0.5 -0.2,-0.4 0,-0.8 0.2,-0.9 0.3,-0.1 0.6,0 0.8,0.5 z m 1.1,2.7 c 0.2,0.4 0,0.8 -0.2,0.9 -0.3,0.1 -0.6,-0.1 -0.8,-0.5 -0.1,-0.4 0,-0.8 0.2,-0.9 0.3,-0.1 0.6,0.1 0.8,0.5 z m 1.1,2.8 c 0.1,0.4 0,0.8 -0.3,0.9 -0.3,0 -0.6,-0.1 -0.8,-0.5 -0.1,-0.4 0,-0.8 0.3,-0.9 0.3,-0.1 0.6,0.1 0.8,0.5 z m 0.9,2.8 c 0.1,0.4 0,0.8 -0.3,0.9 -0.3,0 -0.6,-0.1 -0.7,-0.5 -0.1,-0.4 0,-0.8 0.3,-0.9 0.3,0 0.6,0.1 0.7,0.5 z m 0.9,2.8 c 0.1,0.4 0,0.8 -0.3,0.9 -0.3,0 -0.6,-0.2 -0.7,-0.6 -0.1,-0.4 0,-0.8 0.3,-0.9 0.3,-0.1 0.6,0.2 0.7,0.6 z m 0.8,2.9 c 0.1,0.4 0,0.8 -0.3,0.9 -0.3,0 -0.6,-0.2 -0.7,-0.6 0,-0.4 0,-0.8 0.3,-0.9 0.3,0 0.6,0.2 0.7,0.6 z m 0.7,2.9 c 0,0.4 0,0.8 -0.4,0.8 -0.3,0 -0.6,-0.2 -0.7,-0.6 0,-0.4 0,-0.8 0.4,-0.8 0.3,0 0.6,0.2 0.7,0.6 z m 0.6,2.9 c 0,0.4 -0.1,0.8 -0.4,0.8 -0.3,0 -0.6,-0.2 -0.7,-0.6 0,-0.4 0,-0.8 0.4,-0.8 0.3,0 0.6,0.2 0.7,0.6 z m 0.6,2.9 c 0,0.4 -0.1,0.8 -0.4,0.8 -0.3,0 -0.6,-0.2 -0.7,-0.6 -0.1,-0.4 0.1,-0.8 0.4,-0.8 0.3,0 0.6,0.2 0.7,0.6 z m 0.4,2.9 c 0,0.4 -0.1,0.8 -0.4,0.8 -0.3,0 -0.6,-0.3 -0.6,-0.7 0,-0.4 0.1,-0.8 0.4,-0.8 0.3,0 0.6,0.3 0.6,0.7 z m 0.4,3 c 0,0.4 -0.2,0.8 -0.5,0.8 -0.3,0 -0.6,-0.3 -0.6,-0.7 0,-0.4 0.2,-0.8 0.5,-0.8 0.3,0 0.6,0.3 0.6,0.7 z m 0.2,2.9 c 0,0.4 -0.2,0.8 -0.5,0.8 -0.3,0 -0.6,-0.3 -0.6,-0.7 0,-0.4 0.2,-0.8 0.5,-0.8 0.3,0 0.6,0.3 0.6,0.7 z m 0.2,3 c 0,0.4 -0.2,0.8 -0.5,0.8 -0.3,0 -0.6,-0.3 -0.6,-0.7 0,-0.4 0.2,-0.7 0.5,-0.8 0.3,0 0.6,0.3 0.6,0.7 z M 264.6,10.3 c 0.2,0.4 0.2,0.8 0,0.9 -0.3,0.2 -0.6,0 -0.9,-0.3 -0.2,-0.3 -0.2,-0.8 0,-0.9 0.2,-0.2 0.6,0 0.9,0.3 z m 1.6,2.6 c 0.2,0.4 0.2,0.8 0,0.9 -0.3,0.2 -0.6,0 -0.9,-0.4 -0.2,-0.4 -0.2,-0.8 0,-0.9 0.2,-0.1 0.6,0 0.9,0.4 z m 1.5,2.6 c 0.2,0.4 0.2,0.8 -0.1,0.9 -0.3,0.1 -0.6,0 -0.8,-0.4 -0.2,-0.4 -0.2,-0.8 0,-0.9 0.3,-0.2 0.6,0 0.8,0.4 z m 1.5,2.6 c 0.2,0.4 0.1,0.8 -0.1,0.9 -0.3,0.1 -0.6,0 -0.8,-0.4 -0.2,-0.4 -0.1,-0.8 0.1,-0.9 0.2,-0.1 0.6,0 0.8,0.4 z m 1.4,2.7 c 0.2,0.4 0.1,0.8 -0.2,0.9 -0.3,0.1 -0.6,0 -0.8,-0.4 -0.2,-0.4 -0.1,-0.8 0.1,-0.9 0.3,-0.1 0.6,0 0.8,0.4 z m 1.3,2.8 c 0.2,0.4 0.1,0.8 -0.2,0.9 -0.3,0.1 -0.6,0 -0.8,-0.5 -0.2,-0.4 0,-0.8 0.2,-0.9 0.3,-0.1 0.6,0 0.8,0.5 z m 1.2,2.8 c 0.2,0.4 0,0.8 -0.2,0.9 -0.3,0.1 -0.6,0 -0.8,-0.5 -0.2,-0.4 0,-0.8 0.2,-0.9 0.3,-0.1 0.6,0 0.8,0.5 z m 1.2,2.8 c 0.2,0.4 0,0.8 -0.2,0.9 -0.3,0.1 -0.6,-0.1 -0.8,-0.5 -0.2,-0.4 0,-0.8 0.2,-0.9 0.3,-0.1 0.6,0.1 0.8,0.5 z m 1.1,2.8 c 0.1,0.4 0,0.8 -0.2,0.9 -0.3,0.1 -0.6,-0.1 -0.8,-0.5 -0.1,-0.4 0,-0.8 0.2,-0.9 0.2,-0.1 0.6,0.1 0.8,0.5 z m 1,2.9 c 0.1,0.4 0,0.8 -0.3,0.9 -0.3,0 -0.6,-0.2 -0.8,-0.5 -0.1,-0.4 0,-0.8 0.3,-0.9 0.3,0 0.6,0.1 0.8,0.5 z m 0.9,2.9 c 0.1,0.4 0,0.8 -0.3,0.9 -0.3,0 -0.6,-0.2 -0.7,-0.6 -0.1,-0.4 0,-0.8 0.3,-0.9 0.3,0 0.6,0.2 0.7,0.6 z m 0.8,2.9 c 0.1,0.4 0,0.8 -0.3,0.9 -0.3,0 -0.6,-0.2 -0.7,-0.6 -0.1,-0.4 0,-0.8 0.3,-0.9 0.3,0 0.6,0.2 0.7,0.6 z m 0.8,2.9 c 0,0.4 0,0.8 -0.4,0.9 -0.4,0.1 -0.6,-0.2 -0.7,-0.6 0,-0.4 0,-0.8 0.3,-0.9 0.3,0 0.6,0.2 0.7,0.6 z m 0.7,3 c 0,0.4 0,0.8 -0.4,0.9 -0.3,0 -0.6,-0.2 -0.7,-0.6 -0.1,-0.4 0,-0.8 0.4,-0.9 0.3,0 0.6,0.2 0.7,0.6 z m 0.6,3 c 0,0.4 -0.1,0.8 -0.4,0.8 -0.3,0 -0.6,-0.2 -0.7,-0.6 0,-0.4 0,-0.8 0.4,-0.8 0.3,0 0.6,0.2 0.7,0.6 z m 0.5,3 c 0,0.4 -0.1,0.8 -0.4,0.8 -0.3,0 -0.6,-0.3 -0.6,-0.7 0,-0.4 0.1,-0.8 0.4,-0.8 0.3,0 0.6,0.2 0.7,0.7 z m 0.4,3 c 0,0.4 -0.1,0.8 -0.4,0.8 -0.3,0 -0.6,-0.3 -0.6,-0.7 0,-0.4 0.1,-0.8 0.4,-0.8 0.3,0 0.6,0.3 0.6,0.7 z m 0.3,3 c 0,0.4 -0.2,0.8 -0.5,0.8 -0.3,0 -0.6,-0.3 -0.6,-0.7 0,-0.4 0.2,-0.8 0.5,-0.8 0.3,0 0.6,0.3 0.6,0.7 z M 261.8,13.3 c 0.2,0.3 0.2,0.7 0,0.9 -0.2,0.2 -0.6,0 -0.9,-0.3 -0.2,-0.3 -0.2,-0.7 0,-0.9 0.2,-0.2 0.6,0 0.9,0.3 z m 1.6,2.5 c 0.2,0.3 0.2,0.8 0,0.9 -0.3,0.2 -0.6,0 -0.8,-0.3 -0.2,-0.3 -0.2,-0.7 0,-0.9 0.3,-0.2 0.6,0 0.9,0.3 z m 1.5,2.5 c 0.2,0.3 0.2,0.8 0,0.9 -0.3,0.2 -0.6,0 -0.8,-0.4 -0.2,-0.3 -0.2,-0.7 0,-0.9 0.3,-0.2 0.6,0 0.8,0.4 z m 1.5,2.6 c 0.2,0.4 0.1,0.8 -0.1,0.9 -0.3,0.1 -0.6,0 -0.8,-0.4 -0.2,-0.4 -0.1,-0.8 0.1,-0.9 0.3,-0.1 0.6,0 0.8,0.4 z m 1.4,2.6 c 0.2,0.4 0.1,0.8 -0.1,0.9 -0.3,0.1 -0.6,0 -0.8,-0.4 -0.2,-0.4 -0.1,-0.8 0.1,-0.9 0.3,-0.1 0.6,0 0.8,0.4 z m 1.3,2.6 c 0.2,0.4 0.1,0.8 -0.2,0.9 -0.3,0.1 -0.6,0 -0.8,-0.4 -0.2,-0.4 -0.1,-0.8 0.2,-0.9 0.3,-0.1 0.6,0 0.8,0.4 z m 1.3,2.7 c 0.2,0.4 0,0.8 -0.2,0.9 -0.3,0.1 -0.6,0 -0.8,-0.4 -0.2,-0.4 0,-0.8 0.2,-0.9 0.3,-0.1 0.6,0 0.8,0.4 z m 1.2,2.7 c 0.2,0.4 0,0.8 -0.2,0.9 -0.3,0.1 -0.6,0 -0.8,-0.5 -0.2,-0.4 0,-0.8 0.2,-0.9 0.3,-0.1 0.6,0 0.8,0.5 z m 1.1,2.7 c 0.1,0.4 0,0.8 -0.2,0.9 -0.3,0.1 -0.6,-0.1 -0.8,-0.5 -0.1,-0.4 0,-0.8 0.2,-0.9 0.3,-0.1 0.6,0.1 0.8,0.5 z m 1,2.7 c 0.1,0.4 0,0.8 -0.3,0.9 -0.3,0 -0.6,-0.1 -0.8,-0.5 -0.1,-0.4 0,-0.8 0.3,-0.9 0.3,-0.1 0.6,0.1 0.8,0.5 z m 1,2.8 c 0.1,0.4 0,0.8 -0.3,0.9 -0.3,0.1 -0.6,-0.1 -0.7,-0.5 -0.1,-0.4 0,-0.8 0.3,-0.9 0.3,0 0.6,0.1 0.7,0.5 z m 0.9,2.8 c 0.1,0.4 0,0.8 -0.3,0.9 -0.3,0 -0.6,-0.2 -0.7,-0.5 -0.1,-0.3 0,-0.8 0.3,-0.9 0.3,0 0.6,0.2 0.7,0.5 z m 0.8,2.9 c 0.1,0.4 0,0.8 -0.3,0.8 -0.3,0 -0.6,-0.2 -0.7,-0.6 -0.1,-0.4 0,-0.8 0.3,-0.8 0.3,0 0.6,0.2 0.7,0.6 z m 0.7,2.8 c 0,0.4 0,0.8 -0.4,0.8 -0.4,0 -0.6,-0.2 -0.7,-0.6 0,-0.4 0,-0.8 0.4,-0.8 0.4,0 0.6,0.2 0.7,0.6 z m 0.6,2.9 c 0,0.4 0,0.8 -0.4,0.8 -0.3,0 -0.6,-0.2 -0.7,-0.6 0,-0.4 0,-0.8 0.4,-0.8 0.3,0 0.6,0.2 0.7,0.6 z m 0.6,2.9 c 0,0.4 -0.1,0.8 -0.4,0.8 -0.3,0 -0.6,-0.2 -0.7,-0.6 0,-0.4 0.1,-0.8 0.4,-0.8 0.3,0 0.6,0.2 0.7,0.6 z m 0.5,2.9 c 0,0.4 -0.1,0.8 -0.4,0.8 -0.3,0 -0.6,-0.2 -0.6,-0.6 0,-0.4 0.1,-0.8 0.4,-0.8 0.3,0 0.6,0.2 0.6,0.6 z m 0.4,2.9 c 0,0.4 -0.1,0.8 -0.4,0.8 -0.3,0 -0.6,-0.3 -0.6,-0.7 0,-0.4 0.2,-0.8 0.4,-0.8 0.3,0 0.6,0.3 0.6,0.7 z M 259.9,17.7 c 0.2,0.3 0.2,0.8 0,0.9 -0.2,0.2 -0.6,0 -0.9,-0.3 -0.2,-0.3 -0.2,-0.7 0,-0.9 0.2,-0.2 0.6,0 0.9,0.3 z m 1.6,2.5 c 0.2,0.3 0.2,0.8 0,0.9 -0.3,0.2 -0.6,0 -0.9,-0.3 -0.2,-0.3 -0.2,-0.8 0,-0.9 0.3,-0.2 0.6,0 0.9,0.3 z m 1.6,2.5 c 0.2,0.4 0.2,0.8 0,0.9 -0.3,0.2 -0.6,0 -0.8,-0.4 -0.2,-0.3 -0.2,-0.8 0,-0.9 0.3,-0.2 0.6,0 0.8,0.4 z m 1.4,2.6 c 0.2,0.4 0.1,0.8 -0.1,0.9 -0.3,0.1 -0.6,0 -0.8,-0.4 -0.2,-0.4 -0.1,-0.8 0.1,-0.9 0.3,-0.1 0.6,0 0.8,0.4 z m 1.4,2.6 c 0.2,0.4 0.1,0.8 -0.1,0.9 -0.3,0.1 -0.6,0 -0.8,-0.4 -0.2,-0.4 -0.1,-0.8 0.1,-0.9 0.3,-0.1 0.6,0 0.8,0.4 z m 1.4,2.7 c 0.2,0.4 0,0.8 -0.2,0.9 -0.3,0.1 -0.6,0 -0.8,-0.4 -0.2,-0.4 -0.1,-0.8 0.2,-0.9 0.3,-0.1 0.6,0 0.8,0.4 z m 1.2,2.7 c 0.2,0.4 0,0.8 -0.2,0.9 -0.3,0.1 -0.6,0 -0.8,-0.5 -0.2,-0.4 0,-0.8 0.2,-0.9 0.3,-0.1 0.6,0 0.8,0.5 z m 1.2,2.7 c 0.2,0.4 0,0.8 -0.2,0.9 -0.3,0.1 -0.6,-0.1 -0.8,-0.5 -0.2,-0.4 0,-0.8 0.2,-0.9 0.3,-0.1 0.6,0 0.8,0.5 z m 1.1,2.7 c 0.1,0.4 0,0.8 -0.3,0.9 -0.3,0.1 -0.6,-0.1 -0.8,-0.5 -0.1,-0.4 0,-0.8 0.2,-0.9 0.3,-0.1 0.6,0.1 0.8,0.5 z m 1,2.8 c 0.1,0.4 0,0.8 -0.3,0.9 -0.3,0 -0.6,-0.1 -0.8,-0.5 -0.1,-0.4 0,-0.8 0.3,-0.9 0.3,0 0.6,0.1 0.8,0.5 z m 0.9,2.9 c 0.1,0.4 0,0.8 -0.3,0.9 -0.3,0 -0.6,-0.2 -0.7,-0.5 -0.1,-0.4 0,-0.8 0.3,-0.9 0.3,0 0.6,0.2 0.7,0.5 z m 0.9,2.8 c 0.1,0.4 0,0.8 -0.3,0.9 -0.3,0.1 -0.6,-0.2 -0.7,-0.6 -0.1,-0.4 0,-0.8 0.3,-0.9 0.3,0 0.6,0.2 0.7,0.6 z m 0.7,2.9 c 0.1,0.4 0,0.8 -0.3,0.8 -0.3,0 -0.6,-0.2 -0.7,-0.6 0,-0.4 0,-0.8 0.3,-0.8 0.3,0 0.6,0.2 0.7,0.6 z M 275,53 c 0,0.4 0,0.8 -0.4,0.8 -0.3,0 -0.6,-0.2 -0.7,-0.6 0,-0.4 0,-0.8 0.4,-0.8 0.3,0 0.6,0.2 0.7,0.6 z m 0.6,2.9 c 0,0.4 -0.1,0.8 -0.4,0.8 -0.3,0 -0.6,-0.2 -0.7,-0.6 0,-0.4 0,-0.8 0.4,-0.8 0.3,0 0.6,0.2 0.7,0.6 z m 0.5,2.9 c 0,0.4 -0.1,0.8 -0.4,0.8 -0.3,0 -0.6,-0.2 -0.6,-0.6 0,-0.4 0.1,-0.8 0.4,-0.8 0.3,0 0.6,0.2 0.7,0.6 z m 0.4,3 c 0,0.4 -0.1,0.8 -0.4,0.8 -0.3,0 -0.6,-0.3 -0.6,-0.7 0,-0.4 0.1,-0.8 0.4,-0.8 0.3,0 0.6,0.3 0.6,0.7 z M 258.3,22 c 0.2,0.3 0.2,0.8 0,0.9 -0.3,0.2 -0.6,0 -0.9,-0.3 -0.2,-0.3 -0.2,-0.8 0,-0.9 0.3,-0.2 0.6,0 0.9,0.3 z m 1.6,2.5 c 0.2,0.4 0.2,0.8 0,0.9 -0.3,0.2 -0.6,0 -0.8,-0.4 -0.2,-0.4 -0.2,-0.8 0,-0.9 0.3,-0.2 0.6,0 0.8,0.4 z m 1.5,2.6 c 0.2,0.4 0.1,0.8 -0.1,0.9 -0.3,0.1 -0.6,0 -0.8,-0.4 -0.2,-0.4 -0.2,-0.8 0.1,-0.9 0.3,-0.1 0.6,0 0.8,0.4 z m 1.4,2.7 c 0.2,0.4 0.1,0.8 -0.1,0.9 -0.3,0.1 -0.6,0 -0.8,-0.4 -0.2,-0.4 -0.1,-0.8 0.1,-0.9 0.3,-0.1 0.6,0 0.8,0.4 z m 1.4,2.6 c 0.2,0.4 0.1,0.8 -0.2,0.9 -0.3,0.1 -0.6,0 -0.8,-0.4 -0.2,-0.4 -0.1,-0.8 0.2,-0.9 0.3,-0.1 0.6,0 0.8,0.4 z m 1.3,2.7 c 0.2,0.4 0,0.8 -0.2,0.9 -0.3,0.1 -0.6,0 -0.8,-0.5 -0.2,-0.4 0,-0.8 0.2,-0.9 0.3,-0.1 0.6,0 0.8,0.4 z m 1.2,2.8 c 0.2,0.4 0,0.8 -0.2,0.9 -0.3,0.1 -0.6,0 -0.8,-0.5 -0.2,-0.4 0,-0.8 0.2,-0.9 0.3,-0.1 0.6,0 0.8,0.5 z m 1.1,2.7 c 0.2,0.4 0,0.8 -0.2,0.9 -0.2,0.1 -0.6,-0.1 -0.8,-0.5 -0.1,-0.4 0,-0.8 0.2,-0.9 0.3,-0.1 0.6,0.1 0.8,0.5 z m 1.1,2.8 c 0.1,0.4 0,0.8 -0.3,0.9 -0.3,0.1 -0.6,-0.1 -0.8,-0.5 -0.1,-0.4 0,-0.8 0.2,-0.9 0.3,-0.1 0.6,0.1 0.8,0.5 z m 1,2.9 c 0.1,0.4 0,0.8 -0.3,0.9 -0.3,0 -0.6,-0.1 -0.7,-0.5 -0.1,-0.4 0,-0.8 0.3,-0.9 0.3,0 0.6,0.1 0.8,0.5 z m 0.9,2.8 c 0.1,0.4 0,0.8 -0.3,0.9 -0.3,0 -0.6,-0.2 -0.7,-0.6 -0.1,-0.4 0,-0.8 0.3,-0.9 0.3,0 0.6,0.2 0.7,0.6 z m 0.8,2.9 c 0.1,0.4 0,0.8 -0.3,0.9 -0.3,0 -0.6,-0.2 -0.7,-0.6 -0.1,-0.4 0,-0.8 0.3,-0.9 0.3,0 0.6,0.2 0.7,0.6 z m 0.7,2.9 c 0,0.4 0,0.8 -0.4,0.9 -0.3,0 -0.6,-0.2 -0.7,-0.6 0,-0.4 0,-0.8 0.3,-0.9 0.3,0 0.6,0.2 0.7,0.6 z m 0.7,2.9 c 0,0.4 0,0.8 -0.4,0.8 -0.3,0 -0.6,-0.2 -0.7,-0.6 0,-0.4 0,-0.8 0.4,-0.8 0.3,0 0.6,0.2 0.7,0.6 z m 0.6,2.9 c 0,0.4 -0.1,0.8 -0.4,0.8 -0.3,0 -0.6,-0.2 -0.7,-0.6 0,-0.4 0,-0.8 0.4,-0.8 0.4,0 0.6,0.2 0.7,0.6 z m 0.5,3 c 0,0.4 -0.1,0.8 -0.4,0.8 -0.3,0 -0.6,-0.2 -0.6,-0.6 0,-0.4 0.1,-0.8 0.4,-0.8 0.3,0 0.6,0.2 0.7,0.6 z M 256.6,26.4 c 0.2,0.3 0.2,0.7 0,0.9 -0.2,0.2 -0.6,0 -0.9,-0.3 -0.2,-0.3 -0.2,-0.7 0,-0.9 0.2,-0.2 0.6,0 0.9,0.3 z m 1.6,2.5 c 0.2,0.3 0.2,0.8 0,0.9 -0.3,0.2 -0.6,0 -0.8,-0.3 -0.2,-0.3 -0.2,-0.7 0,-0.9 0.3,-0.2 0.6,0 0.8,0.3 z m 1.6,2.5 c 0.2,0.4 0.2,0.8 -0.1,0.9 -0.3,0.1 -0.6,0 -0.8,-0.4 -0.2,-0.3 -0.2,-0.8 0.1,-0.9 0.3,-0.2 0.6,0 0.8,0.4 z m 1.4,2.6 c 0.2,0.4 0.1,0.8 -0.1,0.9 -0.3,0.1 -0.6,0 -0.8,-0.4 -0.2,-0.4 -0.1,-0.8 0.1,-0.9 0.3,-0.1 0.6,0 0.8,0.4 z m 1.4,2.6 c 0.2,0.4 0.1,0.8 -0.2,0.9 -0.3,0.1 -0.6,0 -0.8,-0.4 -0.2,-0.4 -0.1,-0.8 0.2,-0.9 0.3,-0.1 0.6,0 0.8,0.4 z m 1.2,2.7 c 0.2,0.4 0,0.8 -0.2,0.9 -0.2,0.1 -0.6,0 -0.8,-0.4 -0.2,-0.4 0,-0.8 0.2,-0.9 0.3,-0.1 0.6,0 0.8,0.4 z M 265,42 c 0.2,0.4 0,0.8 -0.2,0.9 -0.3,0.1 -0.6,0 -0.8,-0.5 -0.2,-0.4 0,-0.8 0.2,-0.9 0.3,-0.1 0.6,0 0.8,0.5 z m 1.1,2.7 c 0.1,0.4 0,0.8 -0.2,0.9 -0.3,0.1 -0.6,-0.1 -0.8,-0.5 -0.1,-0.4 0,-0.8 0.2,-0.9 0.3,-0.1 0.6,0.1 0.8,0.5 z m 1,2.8 c 0.1,0.4 0,0.8 -0.3,0.9 -0.3,0.1 -0.6,-0.1 -0.7,-0.5 -0.1,-0.4 0,-0.8 0.3,-0.9 0.3,-0.1 0.6,0.1 0.8,0.5 z m 1,2.8 c 0.1,0.4 0,0.8 -0.3,0.9 -0.3,0 -0.6,-0.2 -0.7,-0.5 -0.1,-0.4 0,-0.8 0.3,-0.9 0.3,0 0.6,0.1 0.7,0.5 z m 0.8,2.8 c 0.1,0.4 0,0.8 -0.3,0.9 -0.3,0 -0.6,-0.2 -0.7,-0.6 -0.1,-0.4 0,-0.8 0.3,-0.9 0.3,-0.1 0.6,0.2 0.7,0.6 z m 0.7,2.9 c 0,0.4 0,0.8 -0.4,0.8 -0.3,0 -0.6,-0.2 -0.7,-0.6 0,-0.4 0,-0.8 0.3,-0.8 0.3,0 0.6,0.2 0.7,0.6 z m 0.7,2.9 c 0,0.4 0,0.8 -0.4,0.8 -0.3,0 -0.6,-0.2 -0.7,-0.6 0,-0.4 0,-0.8 0.4,-0.8 0.3,0 0.6,0.2 0.7,0.6 z m 0.6,2.9 c 0,0.4 -0.1,0.8 -0.4,0.8 -0.3,0 -0.6,-0.2 -0.7,-0.6 0,-0.4 0.1,-0.8 0.4,-0.8 0.3,0 0.6,0.2 0.7,0.6 z M 256.1,32.1 c 0.2,0.3 0.2,0.7 0,0.9 -0.3,0.2 -0.6,0 -0.8,-0.3 -0.2,-0.3 -0.2,-0.7 0,-0.9 0.3,-0.2 0.6,0 0.9,0.3 z m 1.6,2.5 c 0.2,0.3 0.2,0.8 0,0.9 -0.3,0.1 -0.6,0 -0.8,-0.4 -0.2,-0.3 -0.2,-0.7 0,-0.9 0.3,-0.2 0.6,0 0.8,0.3 z m 1.4,2.6 c 0.2,0.4 0.1,0.8 -0.1,0.9 -0.3,0.1 -0.6,0 -0.8,-0.4 -0.2,-0.3 -0.1,-0.8 0.1,-0.9 0.3,-0.1 0.6,0 0.8,0.4 z m 1.4,2.6 c 0.2,0.4 0.1,0.8 -0.2,0.9 -0.3,0.1 -0.6,0 -0.8,-0.4 -0.2,-0.4 -0.1,-0.8 0.2,-0.9 0.3,-0.1 0.6,0 0.8,0.4 z m 1.2,2.6 c 0.2,0.4 0,0.8 -0.2,0.9 -0.2,0.1 -0.6,0 -0.8,-0.4 -0.2,-0.4 0,-0.8 0.2,-0.9 0.3,-0.1 0.6,0 0.8,0.4 z m 1.2,2.7 c 0.2,0.4 0,0.8 -0.2,0.9 -0.2,0.1 -0.6,0 -0.8,-0.5 -0.2,-0.4 0,-0.8 0.2,-0.9 0.3,-0.1 0.6,0 0.8,0.5 z m 1.1,2.7 c 0.1,0.4 0,0.8 -0.3,0.9 -0.3,0.1 -0.6,-0.1 -0.8,-0.5 -0.1,-0.4 0,-0.8 0.2,-0.9 0.3,-0.1 0.6,0.1 0.8,0.5 z m 1,2.8 c 0.1,0.4 0,0.8 -0.3,0.9 -0.3,0 -0.6,-0.1 -0.7,-0.5 -0.1,-0.4 0,-0.8 0.3,-0.9 0.3,0 0.6,0.1 0.7,0.5 z m 0.8,2.8 c 0.1,0.4 0,0.8 -0.3,0.9 -0.3,0 -0.6,-0.2 -0.7,-0.5 -0.1,-0.4 0,-0.8 0.3,-0.9 0.3,0 0.6,0.2 0.7,0.5 z m 0.8,2.8 c 0,0.4 0,0.8 -0.3,0.8 -0.3,0 -0.6,-0.2 -0.7,-0.6 -0.1,-0.4 0,-0.8 0.3,-0.8 0.3,0 0.6,0.2 0.7,0.6 z m 0.7,2.9 c 0,0.4 0,0.8 -0.4,0.8 -0.3,0 -0.6,-0.2 -0.7,-0.6 0,-0.4 0,-0.8 0.4,-0.8 0.3,0 0.6,0.2 0.7,0.6 z M 256.2,38.9 c 0.2,0.3 0.2,0.8 0,0.9 -0.3,0.2 -0.6,0 -0.9,-0.3 -0.2,-0.3 -0.2,-0.7 0,-0.9 0.2,-0.2 0.6,0 0.9,0.3 z m 1.6,2.5 c 0.2,0.4 0.2,0.8 0,0.9 -0.3,0.1 -0.6,0 -0.8,-0.4 -0.2,-0.3 -0.2,-0.8 0,-0.9 0.3,-0.2 0.6,0 0.8,0.4 z m 1.4,2.6 c 0.2,0.4 0.1,0.8 -0.1,0.9 -0.3,0.1 -0.6,0 -0.8,-0.4 -0.2,-0.4 -0.1,-0.8 0.1,-0.9 0.3,-0.1 0.6,0 0.8,0.4 z m 1.3,2.7 c 0.2,0.4 0,0.8 -0.2,0.9 -0.3,0.1 -0.6,0 -0.8,-0.5 -0.2,-0.4 0,-0.8 0.2,-0.9 0.3,-0.1 0.6,0 0.8,0.5 z m 1.1,2.8 c 0.1,0.4 0,0.8 -0.2,0.9 -0.3,0.1 -0.6,-0.1 -0.8,-0.5 -0.1,-0.4 0,-0.8 0.2,-0.9 0.3,-0.1 0.6,0.1 0.8,0.5 z m 1,2.8 c 0.1,0.4 0,0.8 -0.3,0.9 -0.3,0 -0.6,-0.2 -0.7,-0.5 -0.1,-0.4 0,-0.8 0.3,-0.9 0.3,0 0.6,0.1 0.7,0.5 z m 0.8,2.9 c 0.1,0.4 0,0.8 -0.3,0.9 -0.3,0 -0.6,-0.2 -0.7,-0.6 0,-0.4 0,-0.8 0.3,-0.9 0.3,0 0.6,0.2 0.7,0.6 z m -5.9,-9.8 c 0.2,0.4 0.2,0.8 0,0.9 -0.3,0.1 -0.6,0 -0.8,-0.4 -0.2,-0.3 -0.2,-0.7 0,-0.9 0.2,-0.2 0.6,0 0.9,0.3 z M 259,48 c 0.2,0.4 0,0.8 -0.2,0.9 -0.3,0.1 -0.6,0 -0.8,-0.5 -0.2,-0.4 0,-0.8 0.2,-0.9 0.3,-0.1 0.6,0 0.8,0.4 z m 1,2.9 c 0.1,0.4 0,0.8 -0.3,0.9 -0.3,0 -0.6,-0.2 -0.7,-0.6 -0.1,-0.4 0,-0.8 0.3,-0.9 0.3,0 0.6,0.1 0.7,0.5 z m 53.8,5.1 c -0.3,0 -0.6,-0.3 -0.6,-0.7 0,-0.4 0.2,-0.7 0.5,-0.8 0.3,-0.1 0.6,0.3 0.6,0.7 0,0.4 -0.2,0.7 -0.5,0.8 z m -0.2,-2.9 c -0.3,0 -0.6,-0.3 -0.6,-0.7 0,-0.4 0.2,-0.7 0.5,-0.7 0.3,0 0.5,0.3 0.6,0.7 0,0.4 -0.2,0.7 -0.5,0.7 z m 0,-2.9 c -0.3,0 -0.5,-0.3 -0.5,-0.7 0,-0.4 0.3,-0.7 0.6,-0.7 0.3,0 0.5,0.3 0.5,0.7 0,0.4 -0.2,0.7 -0.5,0.7 z m 0,-2.9 c -0.3,0 -0.5,-0.3 -0.5,-0.7 0,-0.4 0.3,-0.7 0.6,-0.7 0.3,0 0.5,0.4 0.5,0.7 0,0.4 -0.3,0.7 -0.6,0.7 z m 0.2,-2.9 c -0.3,0 -0.5,-0.4 -0.5,-0.8 0,-0.4 0.3,-0.7 0.6,-0.7 0.3,0 0.5,0.4 0.5,0.8 0,0.4 -0.3,0.7 -0.6,0.7 z m 0.2,-2.9 c -0.3,0 -0.5,-0.4 -0.5,-0.8 0,-0.4 0.3,-0.7 0.6,-0.7 0.3,0 0.5,0.4 0.5,0.8 0,0.4 -0.3,0.7 -0.6,0.7 z m 0.3,-2.9 c -0.3,0 -0.5,-0.4 -0.4,-0.8 0,-0.4 0.3,-0.7 0.6,-0.7 0.3,0 0.5,0.4 0.4,0.8 0,0.4 -0.3,0.7 -0.6,0.7 z m 0.4,-2.9 c -0.3,0 -0.5,-0.4 -0.4,-0.8 0,-0.4 0.4,-0.7 0.7,-0.6 0.3,0 0.5,0.4 0.4,0.8 0,0.4 -0.3,0.7 -0.6,0.6 z m 0.5,-2.9 c -0.3,0 -0.5,-0.4 -0.4,-0.8 0,-0.4 0.4,-0.7 0.7,-0.6 0.3,0 0.5,0.4 0.4,0.8 0,0.4 -0.4,0.7 -0.7,0.6 z m 0.6,-2.8 c -0.3,0 -0.5,-0.4 -0.4,-0.8 0,-0.4 0.4,-0.7 0.7,-0.6 0.3,0.1 0.5,0.4 0.4,0.8 0,0.4 -0.4,0.7 -0.7,0.6 z m 0.7,-2.9 c -0.3,0 -0.4,-0.4 -0.3,-0.8 0,-0.4 0.4,-0.6 0.7,-0.6 0.3,0 0.4,0.5 0.3,0.8 0,0.4 -0.4,0.6 -0.7,0.6 z m 0.7,-2.8 c -0.3,0 -0.4,-0.5 -0.3,-0.9 0.1,-0.4 0.4,-0.6 0.7,-0.5 0.3,0 0.4,0.5 0.3,0.9 -0.1,0.4 -0.4,0.6 -0.7,0.5 z m 0.9,-2.8 c -0.3,0 -0.4,-0.5 -0.3,-0.9 0.1,-0.4 0.5,-0.6 0.7,-0.5 0.3,0 0.4,0.5 0.3,0.9 -0.1,0.4 -0.5,0.6 -0.7,0.5 z m 0.9,-2.7 c -0.3,0 -0.4,-0.5 -0.3,-0.9 0.1,-0.4 0.5,-0.6 0.8,-0.5 0.3,0.1 0.4,0.5 0.3,0.9 -0.1,0.4 -0.5,0.6 -0.8,0.5 z m 1,-2.8 c -0.3,-0.1 -0.4,-0.5 -0.2,-0.9 0.2,-0.4 0.5,-0.6 0.8,-0.5 0.3,0.1 0.4,0.5 0.2,0.9 -0.1,0.4 -0.5,0.6 -0.8,0.5 z m 1.1,-2.7 c -0.3,-0.1 -0.4,-0.5 -0.2,-0.9 0.2,-0.4 0.5,-0.6 0.8,-0.5 0.3,0.1 0.4,0.5 0.2,0.9 -0.2,0.4 -0.5,0.6 -0.8,0.5 z m 1.2,-2.6 c -0.3,-0.1 -0.4,-0.5 -0.2,-0.9 0.2,-0.4 0.5,-0.6 0.8,-0.4 0.3,0.1 0.3,0.5 0.2,0.9 -0.2,0.4 -0.5,0.6 -0.8,0.4 z m 1.2,-2.6 c -0.3,-0.1 -0.3,-0.5 -0.2,-0.9 0.2,-0.4 0.6,-0.5 0.8,-0.4 0.3,0.1 0.3,0.5 0.2,0.9 -0.2,0.4 -0.5,0.5 -0.8,0.4 z m 1.4,-2.6 c -0.3,-0.1 -0.3,-0.5 -0.1,-0.9 0.2,-0.4 0.6,-0.5 0.8,-0.4 0.3,0.1 0.3,0.5 0.1,0.9 -0.2,0.3 -0.6,0.5 -0.8,0.4 z m 4.9,-2.2 c 0.3,0.2 0.3,0.6 0,0.9 -0.2,0.4 -0.6,0.5 -0.8,0.4 -0.3,-0.1 -0.3,-0.6 -0.1,-0.9 0.2,-0.4 0.6,-0.5 0.8,-0.4 z m -1.5,2.6 c 0.3,0.1 0.3,0.6 0.1,0.9 -0.2,0.4 -0.6,0.5 -0.8,0.4 -0.3,-0.1 -0.3,-0.6 -0.1,-0.9 0.2,-0.4 0.6,-0.5 0.8,-0.4 z M 327,8.5 c 0.3,0.1 0.3,0.5 0.2,0.9 -0.2,0.4 -0.5,0.6 -0.8,0.4 -0.3,-0.1 -0.3,-0.5 -0.2,-0.9 0.2,-0.4 0.6,-0.6 0.8,-0.4 z m -1.4,2.7 c 0.3,0.1 0.4,0.5 0.2,0.9 -0.2,0.4 -0.5,0.6 -0.8,0.4 -0.3,-0.1 -0.4,-0.5 -0.2,-0.9 0.2,-0.4 0.5,-0.6 0.8,-0.4 z m -1.2,2.7 c 0.3,0.1 0.4,0.5 0.2,0.9 -0.2,0.4 -0.5,0.6 -0.8,0.5 -0.3,-0.1 -0.4,-0.5 -0.2,-0.9 0.2,-0.4 0.5,-0.6 0.8,-0.5 z m -1.1,2.8 c 0.3,0.1 0.4,0.5 0.2,0.9 -0.2,0.4 -0.5,0.6 -0.8,0.5 -0.3,-0.1 -0.4,-0.5 -0.2,-0.9 0.2,-0.4 0.5,-0.6 0.8,-0.5 z m -1.1,2.7 c 0.3,0.1 0.4,0.5 0.3,0.9 -0.1,0.4 -0.5,0.6 -0.8,0.5 -0.3,0 -0.4,-0.5 -0.3,-0.9 0.1,-0.4 0.5,-0.6 0.8,-0.5 z m -1,2.9 c 0.3,0 0.4,0.5 0.3,0.9 -0.1,0.4 -0.5,0.6 -0.7,0.5 -0.2,-0.1 -0.4,-0.5 -0.3,-0.9 0.1,-0.4 0.5,-0.6 0.8,-0.5 z m -0.9,2.8 c 0.3,0 0.4,0.5 0.3,0.9 -0.1,0.4 -0.4,0.6 -0.7,0.6 -0.3,0 -0.4,-0.5 -0.3,-0.9 0.1,-0.4 0.4,-0.6 0.7,-0.6 z m -0.8,2.9 c 0.3,0 0.4,0.5 0.3,0.9 -0.1,0.4 -0.4,0.7 -0.7,0.6 -0.3,0 -0.4,-0.5 -0.3,-0.9 0.1,-0.4 0.4,-0.7 0.7,-0.6 z m -0.8,2.9 c 0.3,0 0.4,0.4 0.4,0.8 0,0.4 -0.4,0.7 -0.7,0.6 -0.3,-0.1 -0.5,-0.4 -0.4,-0.9 0,-0.4 0.4,-0.7 0.7,-0.6 z m -0.6,2.9 c 0.3,0 0.5,0.4 0.4,0.8 -0.1,0.4 -0.4,0.7 -0.7,0.6 -0.3,0 -0.5,-0.4 -0.4,-0.8 0,-0.4 0.4,-0.7 0.7,-0.6 z m -0.6,2.9 c 0.3,0 0.5,0.4 0.4,0.8 0,0.4 -0.4,0.7 -0.7,0.6 -0.3,0 -0.5,-0.4 -0.4,-0.8 0,-0.4 0.4,-0.7 0.7,-0.6 z m -0.5,3 c 0.3,0 0.5,0.4 0.4,0.8 0,0.4 -0.3,0.7 -0.6,0.7 -0.3,0 -0.5,-0.4 -0.4,-0.8 0,-0.4 0.3,-0.7 0.6,-0.7 z m -0.4,2.9 c 0.3,0 0.5,0.4 0.5,0.8 0,0.4 -0.3,0.7 -0.6,0.7 -0.3,0 -0.5,-0.4 -0.5,-0.8 0,-0.4 0.3,-0.7 0.6,-0.7 z m -0.3,3 c 0.3,0 0.5,0.4 0.5,0.8 0,0.4 -0.3,0.7 -0.6,0.7 -0.3,0 -0.5,-0.4 -0.5,-0.8 0,-0.4 0.3,-0.7 0.6,-0.7 z m -0.2,3 c 0.3,0 0.5,0.4 0.5,0.8 0,0.4 -0.3,0.7 -0.6,0.7 -0.3,0 -0.5,-0.4 -0.5,-0.8 0,-0.4 0.3,-0.7 0.6,-0.7 z m -0.1,2.9 c 0.3,0 0.5,0.3 0.5,0.8 0,0.4 -0.3,0.7 -0.6,0.7 -0.3,0 -0.5,-0.3 -0.5,-0.8 0,-0.4 0.3,-0.7 0.6,-0.7 z m -0.1,3 c 0.3,0 0.5,0.3 0.5,0.7 0,0.4 -0.2,0.7 -0.5,0.7 -0.3,0 -0.5,-0.3 -0.5,-0.7 0,-0.4 0.2,-0.7 0.5,-0.7 z m 18,-51.1 c 0.3,0.2 0.3,0.6 0,0.9 -0.2,0.3 -0.6,0.5 -0.8,0.3 -0.3,-0.2 -0.3,-0.6 0,-0.9 0.2,-0.3 0.6,-0.5 0.8,-0.3 z m -1.5,2.5 c 0.3,0.2 0.3,0.6 0.1,0.9 -0.2,0.3 -0.6,0.5 -0.8,0.3 -0.3,-0.2 -0.3,-0.6 -0.1,-0.9 0.2,-0.3 0.6,-0.5 0.8,-0.3 z M 331,8.4 c 0.3,0.1 0.3,0.5 0.1,0.9 -0.2,0.3 -0.6,0.5 -0.8,0.4 C 330,9.6 330,9.2 330.2,8.8 330.4,8.4 330.8,8.3 331,8.4 Z m -1.4,2.5 c 0.3,0.1 0.3,0.5 0.1,0.9 -0.2,0.3 -0.5,0.5 -0.8,0.4 -0.3,-0.1 -0.3,-0.5 -0.2,-0.9 0.2,-0.4 0.5,-0.5 0.8,-0.4 z m -1.3,2.6 c 0.3,0.1 0.4,0.5 0.2,0.9 -0.2,0.4 -0.5,0.5 -0.8,0.4 -0.3,-0.1 -0.4,-0.5 -0.2,-0.9 0.2,-0.4 0.5,-0.5 0.8,-0.4 z m -1.2,2.6 c 0.3,0.1 0.4,0.5 0.2,0.9 -0.2,0.4 -0.5,0.6 -0.8,0.4 -0.3,-0.1 -0.4,-0.5 -0.2,-0.9 0.2,-0.4 0.5,-0.6 0.8,-0.4 z m -1.1,2.6 c 0.3,0.1 0.4,0.5 0.2,0.9 -0.1,0.4 -0.5,0.6 -0.8,0.5 -0.3,-0.1 -0.4,-0.5 -0.2,-0.9 0.1,-0.4 0.5,-0.6 0.8,-0.5 z m -1.1,2.7 c 0.3,0.1 0.4,0.5 0.3,0.9 -0.1,0.4 -0.5,0.6 -0.8,0.5 -0.3,-0.1 -0.4,-0.5 -0.3,-0.9 0.1,-0.4 0.5,-0.6 0.8,-0.5 z m -1,2.7 c 0.3,0 0.4,0.5 0.3,0.9 -0.1,0.4 -0.5,0.6 -0.7,0.5 -0.3,0 -0.4,-0.5 -0.3,-0.9 0.1,-0.4 0.5,-0.6 0.7,-0.5 z m -0.9,2.7 c 0.3,0 0.4,0.5 0.3,0.8 -0.1,0.4 -0.4,0.6 -0.7,0.5 -0.3,0 -0.4,-0.5 -0.3,-0.8 0.1,-0.4 0.4,-0.6 0.7,-0.5 z m -0.8,2.8 c 0.3,0 0.4,0.5 0.3,0.8 -0.1,0.4 -0.4,0.6 -0.7,0.6 -0.3,0 -0.4,-0.4 -0.3,-0.8 0.1,-0.4 0.4,-0.6 0.7,-0.6 z m -0.7,2.8 c 0.3,0 0.4,0.4 0.4,0.8 0,0.4 -0.4,0.6 -0.7,0.6 -0.3,0 -0.5,-0.4 -0.4,-0.8 0,-0.4 0.4,-0.6 0.7,-0.6 z m -0.6,2.8 c 0.3,0 0.5,0.4 0.4,0.8 0,0.4 -0.4,0.7 -0.7,0.6 -0.3,0 -0.5,-0.4 -0.4,-0.8 0,-0.4 0.4,-0.7 0.7,-0.6 z m -0.6,2.8 c 0.3,0 0.5,0.4 0.4,0.8 0,0.4 -0.4,0.7 -0.7,0.6 -0.3,-0.1 -0.5,-0.4 -0.4,-0.8 0,-0.4 0.4,-0.7 0.7,-0.6 z m -0.4,2.8 c 0.3,0 0.5,0.4 0.4,0.8 0,0.4 -0.3,0.7 -0.6,0.6 -0.3,-0.1 -0.5,-0.4 -0.4,-0.8 0,-0.4 0.3,-0.7 0.6,-0.6 z m -0.4,2.9 c 0.3,0 0.5,0.4 0.5,0.8 0,0.4 -0.3,0.7 -0.6,0.7 -0.3,0 -0.5,-0.4 -0.5,-0.8 0,-0.4 0.3,-0.7 0.6,-0.7 z m -0.3,2.8 c 0.3,0 0.5,0.4 0.5,0.8 0,0.4 -0.3,0.7 -0.6,0.7 -0.3,0 -0.5,-0.4 -0.5,-0.8 0,-0.4 0.3,-0.7 0.6,-0.7 z m -0.2,2.9 c 0.3,0 0.5,0.4 0.5,0.7 0,0.4 -0.3,0.7 -0.6,0.7 -0.3,0 -0.5,-0.3 -0.5,-0.7 0,-0.4 0.3,-0.7 0.6,-0.7 z m -0.2,2.9 c 0.3,0 0.5,0.3 0.5,0.7 0,0.4 -0.3,0.7 -0.6,0.7 -0.3,0 -0.5,-0.3 -0.5,-0.7 0,-0.4 0.3,-0.7 0.6,-0.7 z m 0,2.9 c 0.3,0 0.5,0.3 0.5,0.7 0,0.4 -0.2,0.7 -0.5,0.7 -0.3,0 -0.5,-0.3 -0.5,-0.7 0,-0.4 0.2,-0.7 0.5,-0.7 z M 337.5,4.8 c 0.3,0.2 0.3,0.6 0,0.9 -0.2,0.3 -0.6,0.5 -0.9,0.3 -0.3,-0.2 -0.3,-0.6 0,-0.9 0.2,-0.4 0.6,-0.5 0.9,-0.3 z m -1.6,2.5 c 0.3,0.2 0.3,0.6 0,0.9 -0.2,0.4 -0.6,0.5 -0.8,0.4 -0.3,-0.2 -0.3,-0.6 0,-0.9 0.2,-0.4 0.6,-0.5 0.9,-0.4 z m -1.5,2.6 c 0.3,0.1 0.3,0.6 0.1,0.9 -0.2,0.4 -0.6,0.5 -0.8,0.4 -0.3,-0.1 -0.3,-0.6 -0.1,-0.9 0.2,-0.4 0.6,-0.5 0.8,-0.4 z m -1.5,2.6 c 0.3,0.1 0.3,0.6 0.1,0.9 -0.2,0.4 -0.6,0.6 -0.8,0.4 -0.3,-0.1 -0.3,-0.5 -0.1,-0.9 0.2,-0.4 0.6,-0.6 0.8,-0.4 z m -1.3,2.7 c 0.3,0.1 0.3,0.5 0.2,0.9 -0.2,0.4 -0.5,0.6 -0.8,0.4 -0.3,-0.1 -0.3,-0.5 -0.2,-0.9 0.2,-0.4 0.6,-0.6 0.8,-0.4 z m -1.3,2.7 c 0.3,0.1 0.4,0.5 0.2,0.9 -0.2,0.4 -0.5,0.6 -0.8,0.5 -0.3,-0.1 -0.4,-0.5 -0.2,-0.9 0.2,-0.4 0.5,-0.6 0.8,-0.5 z m -1.2,2.8 c 0.3,0.1 0.4,0.5 0.2,0.9 -0.2,0.4 -0.5,0.6 -0.8,0.5 -0.3,-0.1 -0.4,-0.5 -0.2,-0.9 0.2,-0.4 0.5,-0.6 0.8,-0.5 z m -1.1,2.8 c 0.3,0.1 0.4,0.5 0.2,0.9 -0.2,0.4 -0.5,0.6 -0.8,0.5 -0.3,-0.1 -0.4,-0.5 -0.2,-0.9 0.1,-0.4 0.5,-0.6 0.8,-0.5 z m -1.1,2.8 c 0.3,0 0.4,0.5 0.3,0.9 -0.1,0.4 -0.5,0.6 -0.8,0.5 -0.3,0 -0.4,-0.5 -0.3,-0.9 0.1,-0.4 0.5,-0.6 0.8,-0.5 z m -0.9,2.9 c 0.3,0 0.4,0.5 0.3,0.9 -0.1,0.4 -0.5,0.6 -0.7,0.6 -0.3,0 -0.4,-0.5 -0.3,-0.9 0.1,-0.4 0.5,-0.6 0.7,-0.6 z m -0.8,2.8 c 0.3,0 0.4,0.5 0.3,0.9 -0.1,0.4 -0.4,0.7 -0.7,0.6 -0.3,0 -0.4,-0.5 -0.3,-0.9 0.1,-0.4 0.4,-0.7 0.7,-0.6 z m -0.8,2.9 c 0.3,0 0.4,0.5 0.4,0.9 0,0.4 -0.4,0.7 -0.7,0.6 -0.3,0 -0.5,-0.5 -0.4,-0.9 0,-0.4 0.4,-0.7 0.7,-0.6 z m -0.7,3 c 0.3,0 0.5,0.4 0.4,0.8 0,0.4 -0.4,0.7 -0.7,0.6 -0.3,0 -0.5,-0.4 -0.4,-0.8 0,-0.4 0.4,-0.7 0.7,-0.6 z m -0.6,2.9 c 0.3,0 0.5,0.4 0.4,0.8 0,0.4 -0.4,0.7 -0.7,0.6 -0.3,0 -0.5,-0.4 -0.4,-0.8 0,-0.4 0.4,-0.7 0.7,-0.6 z m -0.5,3 c 0.3,0 0.5,0.4 0.4,0.8 0,0.4 -0.3,0.7 -0.6,0.7 -0.3,0 -0.5,-0.4 -0.4,-0.8 0,-0.4 0.3,-0.7 0.6,-0.7 z m -0.4,3 c 0.3,0 0.5,0.4 0.4,0.8 0,0.4 -0.3,0.7 -0.6,0.7 -0.3,0 -0.5,-0.4 -0.5,-0.8 0,-0.4 0.3,-0.7 0.6,-0.7 z m -0.3,2.9 c 0.3,0 0.5,0.4 0.5,0.8 0,0.4 -0.3,0.7 -0.6,0.7 -0.3,0 -0.5,-0.4 -0.5,-0.8 0,-0.4 0.3,-0.7 0.6,-0.7 z m -0.2,3 c 0.3,0 0.5,0.4 0.5,0.8 0,0.4 -0.3,0.7 -0.6,0.7 -0.3,0 -0.5,-0.4 -0.5,-0.8 0,-0.4 0.3,-0.7 0.6,-0.7 z m -0.1,3 c 0.3,0 0.5,0.4 0.5,0.8 0,0.4 -0.3,0.7 -0.6,0.7 -0.3,0 -0.5,-0.3 -0.5,-0.8 0,-0.4 0.3,-0.7 0.6,-0.7 z M 340.8,7 c 0.2,0.2 0.3,0.6 0,0.9 -0.2,0.3 -0.6,0.5 -0.9,0.3 -0.3,-0.2 -0.3,-0.6 0,-0.9 0.2,-0.3 0.6,-0.5 0.9,-0.3 z m -1.6,2.4 c 0.3,0.2 0.3,0.6 0,0.9 -0.2,0.3 -0.6,0.5 -0.8,0.3 -0.3,-0.2 -0.3,-0.6 0,-0.9 0.2,-0.3 0.6,-0.5 0.9,-0.3 z m -1.5,2.6 c 0.3,0.2 0.3,0.6 0,0.9 -0.2,0.4 -0.6,0.5 -0.8,0.4 -0.3,-0.1 -0.3,-0.6 -0.1,-0.9 0.2,-0.4 0.6,-0.5 0.8,-0.4 z m -1.5,2.5 c 0.3,0.1 0.3,0.5 0.1,0.9 -0.2,0.4 -0.6,0.5 -0.8,0.4 -0.3,-0.1 -0.3,-0.5 -0.1,-0.9 0.2,-0.4 0.6,-0.5 0.8,-0.4 z m -1.3,2.6 c 0.3,0.1 0.3,0.5 0.1,0.9 -0.2,0.4 -0.5,0.6 -0.8,0.4 -0.3,-0.1 -0.3,-0.5 -0.2,-0.9 0.2,-0.4 0.6,-0.6 0.8,-0.4 z m -1.3,2.7 c 0.3,0.1 0.4,0.5 0.2,0.9 -0.2,0.4 -0.5,0.6 -0.8,0.4 -0.3,-0.1 -0.4,-0.5 -0.2,-0.9 0.2,-0.4 0.5,-0.6 0.8,-0.4 z m -1.3,2.7 c 0.3,0.1 0.4,0.5 0.2,0.9 -0.2,0.4 -0.5,0.6 -0.8,0.5 -0.3,-0.1 -0.4,-0.5 -0.2,-0.9 0.2,-0.4 0.5,-0.6 0.8,-0.5 z m -1.1,2.7 c 0.3,0.1 0.4,0.5 0.2,0.9 -0.2,0.4 -0.5,0.6 -0.8,0.5 -0.3,-0.1 -0.4,-0.5 -0.2,-0.9 0.2,-0.4 0.5,-0.6 0.8,-0.5 z m -1.1,2.8 c 0.3,0.1 0.4,0.5 0.3,0.9 -0.1,0.4 -0.5,0.6 -0.8,0.5 -0.3,0 -0.4,-0.5 -0.3,-0.9 0.1,-0.4 0.5,-0.6 0.8,-0.5 z m -0.9,2.8 c 0.3,0 0.4,0.5 0.3,0.9 -0.1,0.4 -0.5,0.6 -0.7,0.5 -0.3,0 -0.4,-0.5 -0.3,-0.9 0.1,-0.4 0.5,-0.6 0.7,-0.5 z m -0.9,2.8 c 0.3,0 0.4,0.5 0.3,0.9 -0.1,0.4 -0.4,0.6 -0.7,0.6 -0.3,0 -0.4,-0.5 -0.3,-0.9 0.1,-0.4 0.4,-0.6 0.7,-0.6 z m -0.8,2.8 c 0.3,0 0.4,0.5 0.3,0.9 0,0.4 -0.4,0.7 -0.7,0.6 -0.3,0 -0.4,-0.5 -0.3,-0.9 0,-0.4 0.4,-0.7 0.7,-0.6 z m -0.8,2.9 c 0.3,0 0.5,0.4 0.4,0.8 0,0.4 -0.4,0.7 -0.7,0.6 -0.3,0 -0.5,-0.4 -0.4,-0.8 0,-0.4 0.4,-0.7 0.7,-0.6 z m -0.6,2.9 c 0.3,0 0.5,0.4 0.4,0.8 0,0.4 -0.4,0.7 -0.7,0.6 -0.3,0 -0.5,-0.4 -0.4,-0.8 0,-0.4 0.4,-0.7 0.7,-0.6 z m -0.5,2.9 c 0.3,0 0.5,0.4 0.4,0.8 -0.1,0.4 -0.4,0.7 -0.7,0.6 -0.3,0 -0.5,-0.4 -0.4,-0.8 0,-0.4 0.4,-0.7 0.7,-0.6 z m -0.5,2.9 c 0.3,0 0.5,0.4 0.4,0.8 0,0.4 -0.3,0.7 -0.6,0.7 -0.3,0 -0.5,-0.4 -0.4,-0.8 0,-0.4 0.3,-0.7 0.6,-0.7 z m -0.4,2.9 c 0.3,0 0.5,0.4 0.5,0.8 0,0.4 -0.3,0.7 -0.6,0.7 -0.3,0 -0.5,-0.4 -0.5,-0.8 0,-0.4 0.3,-0.7 0.6,-0.7 z m -0.3,2.9 c 0.3,0 0.5,0.4 0.5,0.8 0,0.4 -0.3,0.7 -0.6,0.7 -0.3,0 -0.5,-0.4 -0.5,-0.8 0,-0.4 0.3,-0.7 0.6,-0.7 z m -0.2,3 c 0.3,0 0.5,0.4 0.5,0.8 0,0.4 -0.3,0.7 -0.6,0.7 -0.3,0 -0.5,-0.4 -0.5,-0.8 0,-0.4 0.3,-0.7 0.6,-0.7 z M 343.7,10 c 0.2,0.2 0.3,0.6 0,0.9 -0.2,0.3 -0.6,0.5 -0.9,0.3 -0.3,-0.2 -0.3,-0.6 0,-0.9 0.2,-0.4 0.6,-0.5 0.9,-0.3 z m -1.6,2.5 c 0.3,0.2 0.3,0.6 0,0.9 -0.2,0.4 -0.6,0.5 -0.9,0.4 -0.3,-0.2 -0.3,-0.6 0,-0.9 0.2,-0.4 0.6,-0.5 0.9,-0.4 z m -1.6,2.6 c 0.3,0.2 0.3,0.6 0,0.9 -0.2,0.4 -0.6,0.5 -0.8,0.4 -0.3,-0.1 -0.3,-0.6 -0.1,-0.9 0.2,-0.4 0.6,-0.5 0.8,-0.4 z m -1.5,2.6 c 0.3,0.1 0.3,0.6 0.1,0.9 -0.2,0.4 -0.6,0.6 -0.8,0.4 -0.3,-0.1 -0.3,-0.6 -0.1,-0.9 0.2,-0.4 0.6,-0.6 0.8,-0.4 z m -1.4,2.7 c 0.3,0.1 0.3,0.5 0.1,0.9 -0.2,0.4 -0.5,0.6 -0.8,0.4 -0.3,-0.1 -0.3,-0.5 -0.2,-0.9 0.2,-0.4 0.6,-0.6 0.8,-0.4 z m -1.3,2.7 c 0.3,0.1 0.3,0.5 0.2,0.9 -0.2,0.4 -0.5,0.6 -0.8,0.5 -0.3,-0.1 -0.3,-0.5 -0.2,-0.9 0.2,-0.4 0.5,-0.6 0.8,-0.5 z m -1.3,2.8 c 0.3,0.1 0.4,0.5 0.2,0.9 -0.2,0.4 -0.5,0.6 -0.8,0.5 -0.3,-0.1 -0.4,-0.5 -0.2,-0.9 0.2,-0.4 0.5,-0.6 0.8,-0.5 z m -1.1,2.8 c 0.3,0.1 0.4,0.5 0.2,0.9 -0.2,0.4 -0.5,0.6 -0.8,0.5 -0.3,-0.1 -0.4,-0.5 -0.2,-0.9 0.2,-0.4 0.5,-0.6 0.8,-0.5 z m -1.1,2.8 c 0.3,0.1 0.4,0.5 0.2,0.9 -0.1,0.4 -0.5,0.6 -0.8,0.5 -0.3,-0.1 -0.4,-0.5 -0.2,-0.9 0.2,-0.4 0.5,-0.6 0.8,-0.5 z m -1,2.8 c 0.3,0 0.4,0.5 0.3,0.9 -0.1,0.4 -0.5,0.6 -0.8,0.5 -0.3,0 -0.4,-0.5 -0.3,-0.9 0.1,-0.4 0.5,-0.6 0.8,-0.5 z m -1,2.9 c 0.3,0 0.4,0.5 0.3,0.9 -0.1,0.4 -0.4,0.7 -0.7,0.6 -0.3,0 -0.4,-0.5 -0.3,-0.9 0.1,-0.4 0.5,-0.7 0.7,-0.6 z m -0.8,2.9 c 0.3,0 0.4,0.5 0.3,0.9 -0.1,0.4 -0.4,0.7 -0.7,0.6 -0.3,0 -0.4,-0.5 -0.3,-0.9 0.1,-0.4 0.4,-0.7 0.7,-0.6 z m -0.8,2.9 c 0.3,0 0.4,0.5 0.3,0.9 0,0.4 -0.4,0.7 -0.7,0.6 -0.3,-0.1 -0.4,-0.5 -0.4,-0.9 0,-0.4 0.4,-0.7 0.7,-0.6 z m -0.7,3 c 0.3,0 0.5,0.4 0.4,0.9 -0.1,0.5 -0.4,0.7 -0.7,0.6 -0.3,0 -0.5,-0.4 -0.4,-0.9 0,-0.4 0.4,-0.7 0.7,-0.6 z m -0.6,2.9 c 0.3,0 0.5,0.4 0.4,0.8 0,0.4 -0.4,0.7 -0.7,0.6 -0.3,0 -0.5,-0.4 -0.4,-0.8 0,-0.4 0.4,-0.7 0.7,-0.6 z m -0.5,3 c 0.3,0 0.5,0.4 0.4,0.8 0,0.4 -0.4,0.7 -0.6,0.7 -0.3,0 -0.5,-0.4 -0.4,-0.8 0,-0.4 0.4,-0.7 0.7,-0.7 z m -0.5,3 c 0.3,0 0.5,0.4 0.4,0.8 0,0.4 -0.3,0.7 -0.6,0.7 -0.3,0 -0.5,-0.4 -0.4,-0.8 0,-0.4 0.3,-0.7 0.6,-0.7 z m -0.4,3 c 0.3,0 0.5,0.4 0.5,0.8 0,0.4 -0.3,0.7 -0.6,0.7 -0.3,0 -0.5,-0.4 -0.5,-0.8 0,-0.4 0.3,-0.7 0.6,-0.7 z m 20,-44.9 c 0.2,0.2 0.3,0.6 0,0.9 -0.2,0.3 -0.6,0.5 -0.9,0.3 -0.2,-0.2 -0.3,-0.6 0,-0.9 0.2,-0.3 0.6,-0.5 0.9,-0.3 z m -1.7,2.5 c 0.3,0.2 0.3,0.6 0,0.9 -0.2,0.3 -0.6,0.5 -0.8,0.3 -0.3,-0.2 -0.3,-0.6 0,-0.9 0.2,-0.3 0.6,-0.5 0.9,-0.3 z m -1.5,2.5 c 0.3,0.2 0.3,0.6 0,0.9 -0.2,0.3 -0.6,0.5 -0.8,0.4 -0.3,-0.2 -0.3,-0.6 0,-0.9 0.2,-0.3 0.6,-0.5 0.8,-0.4 z m -1.5,2.5 c 0.3,0.1 0.3,0.6 0.1,0.9 -0.2,0.3 -0.6,0.5 -0.8,0.4 -0.3,-0.1 -0.3,-0.6 -0.1,-0.9 0.2,-0.4 0.6,-0.5 0.8,-0.4 z m -1.4,2.6 c 0.3,0.1 0.3,0.5 0.1,0.9 -0.2,0.4 -0.6,0.5 -0.8,0.4 -0.3,-0.1 -0.3,-0.5 -0.1,-0.9 0.2,-0.4 0.6,-0.5 0.8,-0.4 z m -1.4,2.6 c 0.3,0.1 0.3,0.5 0.2,0.9 -0.1,0.4 -0.5,0.6 -0.8,0.4 -0.3,-0.2 -0.3,-0.5 -0.2,-0.9 0.2,-0.4 0.5,-0.6 0.8,-0.4 z m -1.2,2.6 c 0.3,0.1 0.4,0.5 0.2,0.9 -0.2,0.4 -0.5,0.6 -0.8,0.4 -0.3,-0.1 -0.4,-0.5 -0.2,-0.9 0.2,-0.4 0.5,-0.6 0.8,-0.4 z m -1.2,2.7 c 0.3,0.1 0.4,0.5 0.2,0.9 -0.2,0.4 -0.5,0.6 -0.8,0.5 -0.3,-0.1 -0.4,-0.5 -0.2,-0.9 0.2,-0.4 0.5,-0.6 0.8,-0.5 z m -1.2,2.7 c 0.3,0.1 0.4,0.5 0.2,0.9 -0.1,0.4 -0.5,0.6 -0.8,0.5 -0.3,-0.1 -0.4,-0.5 -0.2,-0.9 0.1,-0.4 0.5,-0.6 0.8,-0.5 z m -1,2.7 c 0.3,0.1 0.4,0.5 0.3,0.9 -0.1,0.4 -0.5,0.6 -0.8,0.5 -0.3,0 -0.4,-0.5 -0.3,-0.9 0.1,-0.4 0.5,-0.6 0.8,-0.5 z m -1,2.8 c 0.3,0 0.4,0.5 0.3,0.9 -0.1,0.4 -0.5,0.6 -0.7,0.5 -0.2,-0.1 -0.4,-0.5 -0.3,-0.9 0.1,-0.4 0.5,-0.6 0.7,-0.5 z m -0.9,2.8 c 0.3,0 0.4,0.5 0.3,0.9 -0.1,0.4 -0.4,0.6 -0.7,0.5 -0.3,0 -0.4,-0.5 -0.3,-0.9 0.1,-0.4 0.4,-0.6 0.7,-0.5 z m -0.8,2.8 c 0.3,0 0.4,0.5 0.3,0.8 -0.1,0.4 -0.4,0.6 -0.7,0.6 -0.3,0 -0.4,-0.5 -0.3,-0.8 0.1,-0.4 0.4,-0.6 0.7,-0.6 z m -0.7,2.8 c 0.3,0 0.5,0.4 0.4,0.8 0,0.4 -0.4,0.7 -0.7,0.6 -0.3,-0.1 -0.5,-0.4 -0.4,-0.8 0,-0.4 0.4,-0.7 0.7,-0.6 z m -0.7,2.9 c 0.3,0 0.5,0.4 0.4,0.8 0,0.4 -0.4,0.7 -0.7,0.6 -0.3,0 -0.5,-0.4 -0.4,-0.8 0,-0.4 0.4,-0.7 0.7,-0.6 z m -0.6,2.9 c 0.3,0 0.5,0.4 0.4,0.8 0,0.4 -0.4,0.7 -0.7,0.6 -0.3,0 -0.5,-0.4 -0.4,-0.8 0,-0.4 0.4,-0.7 0.7,-0.6 z m -0.5,2.9 c 0.3,0 0.5,0.4 0.4,0.8 0,0.4 -0.4,0.7 -0.6,0.6 -0.3,0 -0.5,-0.4 -0.4,-0.8 0,-0.4 0.4,-0.7 0.6,-0.6 z m -0.4,2.9 c 0.3,0 0.5,0.4 0.4,0.8 0,0.4 -0.3,0.7 -0.6,0.7 -0.3,0 -0.5,-0.4 -0.4,-0.8 0,-0.4 0.3,-0.7 0.6,-0.7 z m 19.5,-41.8 c 0.2,0.2 0.3,0.6 0,0.9 -0.2,0.3 -0.6,0.5 -0.9,0.3 -0.2,-0.2 -0.3,-0.6 0,-0.9 0.2,-0.3 0.6,-0.5 0.9,-0.3 z m -1.6,2.4 c 0.3,0.2 0.3,0.6 0,0.9 -0.2,0.3 -0.6,0.5 -0.9,0.3 -0.3,-0.2 -0.3,-0.6 0,-0.9 0.2,-0.3 0.6,-0.5 0.9,-0.3 z m -1.6,2.5 c 0.3,0.2 0.3,0.6 0,0.9 -0.2,0.3 -0.6,0.5 -0.8,0.4 -0.3,-0.2 -0.3,-0.6 0,-0.9 0.2,-0.4 0.6,-0.5 0.8,-0.4 z m -1.4,2.6 c 0.3,0.1 0.3,0.6 0.1,0.9 -0.2,0.4 -0.6,0.5 -0.8,0.4 -0.3,-0.1 -0.3,-0.6 -0.1,-0.9 0.2,-0.4 0.6,-0.5 0.8,-0.4 z m -1.5,2.6 c 0.3,0.1 0.3,0.5 0.1,0.9 -0.2,0.4 -0.5,0.5 -0.8,0.4 -0.3,-0.1 -0.3,-0.5 -0.1,-0.9 0.2,-0.4 0.6,-0.5 0.8,-0.4 z m -1.3,2.6 c 0.3,0.1 0.3,0.5 0.2,0.9 -0.2,0.4 -0.5,0.6 -0.8,0.4 -0.3,-0.1 -0.3,-0.5 -0.2,-0.9 0.2,-0.4 0.5,-0.6 0.8,-0.4 z m -1.3,2.7 c 0.3,0.1 0.4,0.5 0.2,0.9 -0.2,0.4 -0.5,0.6 -0.8,0.5 -0.3,-0.1 -0.4,-0.5 -0.2,-0.9 0.2,-0.4 0.5,-0.6 0.8,-0.5 z m -1.1,2.7 c 0.3,0.1 0.4,0.5 0.2,0.9 -0.2,0.4 -0.5,0.6 -0.8,0.5 -0.3,-0.1 -0.4,-0.5 -0.2,-0.9 0.2,-0.4 0.5,-0.6 0.8,-0.5 z m -1.1,2.7 c 0.3,0.1 0.4,0.5 0.2,0.9 -0.1,0.4 -0.5,0.6 -0.8,0.5 -0.3,-0.1 -0.4,-0.5 -0.3,-0.9 0.1,-0.4 0.5,-0.6 0.8,-0.5 z m -1.1,2.8 c 0.3,0 0.4,0.5 0.3,0.9 -0.1,0.4 -0.5,0.6 -0.8,0.5 -0.3,0 -0.4,-0.5 -0.3,-0.9 0.1,-0.4 0.5,-0.6 0.8,-0.5 z m -0.9,2.8 c 0.3,0 0.4,0.5 0.3,0.9 -0.1,0.4 -0.5,0.6 -0.7,0.5 -0.3,0 -0.4,-0.5 -0.3,-0.9 0.1,-0.4 0.5,-0.6 0.7,-0.5 z m -0.9,2.8 c 0.3,0 0.4,0.5 0.3,0.9 -0.1,0.4 -0.4,0.6 -0.7,0.6 -0.3,0 -0.4,-0.5 -0.3,-0.9 0.1,-0.4 0.4,-0.6 0.7,-0.6 z m -0.7,2.9 c 0.3,0 0.4,0.5 0.3,0.8 -0.1,0.4 -0.4,0.7 -0.7,0.6 -0.3,0 -0.4,-0.4 -0.3,-0.8 0.1,-0.4 0.4,-0.7 0.7,-0.6 z m -0.7,2.9 c 0.3,0 0.5,0.4 0.4,0.8 0,0.4 -0.4,0.7 -0.7,0.6 -0.3,0 -0.5,-0.4 -0.4,-0.8 0,-0.4 0.4,-0.7 0.7,-0.6 z m -0.6,2.9 c 0.3,0 0.5,0.4 0.4,0.8 0,0.4 -0.4,0.7 -0.7,0.6 -0.3,0 -0.5,-0.4 -0.4,-0.8 0,-0.4 0.4,-0.7 0.7,-0.6 z m -0.6,2.9 c 0.3,0 0.5,0.4 0.4,0.8 0,0.4 -0.4,0.7 -0.6,0.6 -0.3,0 -0.5,-0.4 -0.4,-0.8 0,-0.4 0.4,-0.7 0.7,-0.6 z m -0.4,2.9 c 0.3,0 0.5,0.4 0.4,0.8 0,0.4 -0.3,0.7 -0.6,0.7 -0.3,0 -0.5,-0.4 -0.4,-0.8 0,-0.4 0.3,-0.7 0.6,-0.7 z m 18.4,-39.4 c 0.3,0.2 0.3,0.6 0,0.9 -0.2,0.3 -0.6,0.5 -0.9,0.3 -0.3,-0.2 -0.3,-0.6 0,-0.9 0.2,-0.3 0.6,-0.5 0.9,-0.3 z m -1.6,2.5 c 0.3,0.2 0.3,0.6 0,0.9 -0.2,0.3 -0.6,0.5 -0.8,0.4 -0.3,-0.2 -0.3,-0.6 0,-0.9 0.2,-0.4 0.6,-0.5 0.8,-0.4 z m -1.5,2.6 c 0.3,0.1 0.3,0.6 0.1,0.9 -0.2,0.4 -0.6,0.5 -0.8,0.4 -0.3,-0.1 -0.3,-0.6 -0.1,-0.9 0.2,-0.4 0.6,-0.5 0.8,-0.4 z m -1.4,2.6 c 0.3,0.1 0.3,0.5 0.1,0.9 -0.2,0.4 -0.6,0.5 -0.8,0.4 -0.3,-0.1 -0.3,-0.5 -0.1,-0.9 0.2,-0.4 0.6,-0.5 0.8,-0.4 z M 344,32 c 0.3,0.1 0.3,0.5 0.2,0.9 -0.2,0.4 -0.5,0.6 -0.8,0.4 -0.3,-0.2 -0.3,-0.5 -0.2,-0.9 0.2,-0.4 0.5,-0.6 0.8,-0.4 z m -1.3,2.7 c 0.3,0.1 0.3,0.5 0.2,0.9 -0.2,0.4 -0.5,0.6 -0.8,0.5 -0.3,-0.1 -0.4,-0.5 -0.2,-0.9 0.2,-0.4 0.5,-0.6 0.8,-0.4 z m -1.2,2.7 c 0.3,0.1 0.4,0.5 0.2,0.9 -0.2,0.4 -0.5,0.6 -0.8,0.5 -0.3,-0.1 -0.4,-0.5 -0.2,-0.9 0.2,-0.4 0.5,-0.6 0.8,-0.5 z m -1.2,2.7 c 0.3,0.1 0.4,0.5 0.2,0.9 -0.1,0.4 -0.5,0.6 -0.8,0.5 -0.3,-0.1 -0.4,-0.5 -0.2,-0.9 0.2,-0.4 0.5,-0.6 0.8,-0.5 z m -1,2.8 c 0.3,0.1 0.4,0.5 0.2,0.9 -0.1,0.4 -0.5,0.6 -0.8,0.5 -0.3,-0.1 -0.4,-0.5 -0.3,-0.9 0.1,-0.4 0.5,-0.6 0.8,-0.5 z m -1,2.8 c 0.3,0 0.4,0.5 0.3,0.9 -0.1,0.4 -0.5,0.6 -0.7,0.5 -0.3,0 -0.4,-0.5 -0.3,-0.9 0.1,-0.4 0.5,-0.6 0.8,-0.5 z m -1,2.9 c 0.3,0 0.4,0.5 0.3,0.9 -0.1,0.4 -0.4,0.6 -0.7,0.6 -0.3,0 -0.4,-0.5 -0.3,-0.9 0.1,-0.4 0.5,-0.6 0.7,-0.6 z m -0.8,2.8 c 0.3,0 0.4,0.5 0.3,0.9 -0.1,0.4 -0.4,0.7 -0.7,0.6 -0.3,0 -0.4,-0.5 -0.3,-0.9 0.1,-0.4 0.4,-0.7 0.7,-0.6 z m -0.8,2.9 c 0.3,0 0.4,0.5 0.3,0.9 0,0.4 -0.4,0.7 -0.7,0.6 -0.3,0 -0.4,-0.5 -0.4,-0.9 0,-0.4 0.4,-0.7 0.7,-0.6 z m -0.7,2.9 c 0.3,0 0.5,0.4 0.4,0.8 0,0.4 -0.4,0.7 -0.7,0.6 -0.3,0 -0.5,-0.4 -0.4,-0.8 0,-0.4 0.4,-0.7 0.7,-0.6 z m -0.6,2.9 c 0.3,0 0.5,0.4 0.4,0.8 0,0.4 -0.4,0.7 -0.7,0.6 -0.3,0 -0.5,-0.4 -0.4,-0.8 0,-0.4 0.4,-0.7 0.7,-0.6 z m -0.5,2.9 c 0.3,0 0.5,0.4 0.4,0.8 0,0.4 -0.4,0.7 -0.6,0.6 -0.3,0 -0.5,-0.4 -0.4,-0.8 0,-0.4 0.4,-0.7 0.7,-0.6 z m 17.7,-36.9 c 0.2,0.2 0.3,0.6 0,0.9 -0.2,0.3 -0.6,0.5 -0.9,0.3 -0.3,-0.2 -0.3,-0.6 0,-0.9 0.2,-0.3 0.6,-0.5 0.9,-0.3 z m -1.6,2.5 c 0.3,0.2 0.3,0.6 0,0.9 -0.2,0.3 -0.6,0.5 -0.8,0.3 -0.3,-0.2 -0.3,-0.6 0,-0.9 0.2,-0.3 0.6,-0.5 0.8,-0.3 z m -1.6,2.5 c 0.3,0.2 0.3,0.6 0.1,0.9 -0.2,0.3 -0.6,0.5 -0.8,0.4 -0.3,-0.1 -0.3,-0.6 -0.1,-0.9 0.2,-0.4 0.6,-0.5 0.8,-0.4 z m -1.4,2.5 c 0.3,0.1 0.3,0.5 0.1,0.9 -0.2,0.4 -0.6,0.5 -0.8,0.4 -0.3,-0.1 -0.3,-0.5 -0.1,-0.9 0.2,-0.4 0.6,-0.5 0.8,-0.4 z m -1.4,2.6 c 0.3,0.1 0.3,0.5 0.2,0.9 -0.2,0.4 -0.5,0.5 -0.8,0.4 -0.3,-0.1 -0.3,-0.5 -0.2,-0.9 0.2,-0.4 0.6,-0.5 0.8,-0.4 z m -1.3,2.7 c 0.3,0.1 0.4,0.5 0.2,0.9 -0.2,0.4 -0.5,0.6 -0.8,0.4 -0.3,-0.2 -0.4,-0.5 -0.2,-0.9 0.2,-0.4 0.5,-0.6 0.8,-0.4 z m -1.2,2.6 c 0.3,0.1 0.4,0.5 0.2,0.9 -0.2,0.4 -0.5,0.6 -0.8,0.5 -0.3,-0.1 -0.4,-0.5 -0.2,-0.9 0.2,-0.4 0.5,-0.6 0.8,-0.5 z m -1.1,2.7 c 0.3,0.1 0.4,0.5 0.2,0.9 -0.1,0.4 -0.5,0.6 -0.8,0.5 -0.3,-0.1 -0.4,-0.5 -0.2,-0.9 0.1,-0.4 0.5,-0.6 0.8,-0.5 z m -1,2.8 c 0.3,0.1 0.4,0.5 0.3,0.9 -0.1,0.4 -0.5,0.6 -0.7,0.5 -0.2,-0.1 -0.4,-0.5 -0.3,-0.9 0.1,-0.4 0.5,-0.6 0.8,-0.5 z m -1,2.8 c 0.3,0 0.4,0.5 0.3,0.9 -0.1,0.4 -0.4,0.6 -0.7,0.5 -0.3,0 -0.4,-0.5 -0.3,-0.9 0.1,-0.4 0.5,-0.6 0.7,-0.5 z m -0.8,2.8 c 0.3,0 0.4,0.5 0.3,0.9 -0.1,0.4 -0.4,0.6 -0.7,0.6 -0.3,0 -0.4,-0.5 -0.3,-0.9 0.1,-0.4 0.4,-0.6 0.7,-0.6 z m -0.8,2.8 c 0.3,0 0.4,0.4 0.3,0.8 0,0.4 -0.4,0.7 -0.7,0.6 -0.3,0 -0.5,-0.4 -0.4,-0.8 0,-0.4 0.4,-0.7 0.7,-0.6 z m -0.6,2.9 c 0.3,0 0.5,0.4 0.4,0.8 0,0.4 -0.4,0.7 -0.7,0.6 -0.3,0 -0.5,-0.4 -0.4,-0.8 0,-0.4 0.4,-0.7 0.7,-0.6 z m -0.6,2.8 c 0.3,0 0.5,0.4 0.4,0.8 0,0.4 -0.4,0.7 -0.7,0.6 -0.3,0 -0.5,-0.4 -0.4,-0.8 0,-0.4 0.4,-0.7 0.7,-0.6 z m 14.9,-29.3 c 0.3,0.2 0.3,0.6 0,0.9 -0.2,0.3 -0.6,0.5 -0.8,0.3 -0.3,-0.2 -0.3,-0.6 0,-0.9 0.2,-0.3 0.6,-0.5 0.9,-0.3 z m -1.6,2.5 c 0.3,0.2 0.3,0.6 0,0.9 -0.2,0.3 -0.6,0.5 -0.8,0.4 -0.3,-0.2 -0.3,-0.6 0,-0.9 0.2,-0.3 0.6,-0.5 0.8,-0.3 z m -1.4,2.5 c 0.3,0.1 0.3,0.5 0.1,0.9 -0.2,0.3 -0.6,0.5 -0.8,0.4 -0.3,-0.1 -0.3,-0.5 -0.1,-0.9 0.2,-0.4 0.6,-0.5 0.8,-0.4 z m -1.4,2.6 c 0.3,0.1 0.3,0.5 0.2,0.9 -0.2,0.4 -0.5,0.5 -0.8,0.4 -0.3,-0.1 -0.3,-0.5 -0.2,-0.9 0.2,-0.4 0.5,-0.5 0.8,-0.4 z m -1.3,2.6 c 0.3,0.1 0.4,0.5 0.2,0.9 -0.2,0.4 -0.5,0.6 -0.8,0.4 -0.3,-0.2 -0.4,-0.5 -0.2,-0.9 0.2,-0.4 0.5,-0.6 0.8,-0.4 z m -1.2,2.6 c 0.3,0.1 0.4,0.5 0.2,0.9 -0.1,0.4 -0.5,0.6 -0.8,0.5 -0.3,-0.1 -0.4,-0.5 -0.2,-0.9 0.2,-0.4 0.5,-0.6 0.8,-0.5 z m -1.1,2.7 c 0.3,0.1 0.4,0.5 0.2,0.9 -0.1,0.4 -0.5,0.6 -0.8,0.5 -0.3,-0.1 -0.4,-0.5 -0.3,-0.9 0.1,-0.4 0.5,-0.6 0.8,-0.5 z m -1,2.8 c 0.3,0 0.4,0.5 0.3,0.9 -0.1,0.4 -0.5,0.6 -0.7,0.5 -0.3,0 -0.4,-0.5 -0.3,-0.9 0.1,-0.4 0.5,-0.6 0.7,-0.5 z m -0.9,2.7 c 0.3,0 0.4,0.5 0.3,0.9 -0.1,0.4 -0.4,0.6 -0.7,0.5 -0.3,0 -0.4,-0.5 -0.3,-0.9 0.1,-0.4 0.4,-0.6 0.7,-0.5 z m -0.8,2.8 c 0.3,0 0.4,0.5 0.3,0.8 0,0.4 -0.4,0.6 -0.7,0.6 -0.3,0 -0.4,-0.4 -0.3,-0.8 0.1,-0.4 0.4,-0.6 0.7,-0.6 z m -0.6,2.9 c 0.3,0 0.5,0.4 0.4,0.8 0,0.4 -0.4,0.7 -0.7,0.6 -0.3,0 -0.5,-0.4 -0.4,-0.8 0,-0.4 0.4,-0.7 0.7,-0.6 z m 11.2,-20 c 0.2,0.2 0.3,0.6 0,0.9 -0.2,0.3 -0.6,0.5 -0.9,0.3 -0.3,-0.2 -0.3,-0.6 0,-0.9 0.2,-0.3 0.6,-0.5 0.9,-0.3 z m -1.6,2.5 c 0.3,0.2 0.3,0.6 0,0.9 -0.2,0.4 -0.6,0.5 -0.8,0.4 -0.3,-0.1 -0.3,-0.6 0,-0.9 0.2,-0.4 0.6,-0.5 0.8,-0.4 z m -1.4,2.6 c 0.3,0.1 0.3,0.5 0.1,0.9 -0.2,0.4 -0.5,0.5 -0.8,0.4 -0.3,-0.1 -0.3,-0.5 -0.1,-0.9 0.2,-0.4 0.6,-0.6 0.8,-0.4 z m -1.3,2.7 c 0.3,0.1 0.4,0.5 0.2,0.9 -0.2,0.4 -0.5,0.6 -0.8,0.5 -0.3,-0.1 -0.4,-0.5 -0.2,-0.9 0.2,-0.4 0.5,-0.6 0.8,-0.5 z m -1.2,2.7 c 0.3,0.1 0.4,0.5 0.2,0.9 -0.1,0.4 -0.5,0.6 -0.8,0.5 -0.3,-0.1 -0.4,-0.5 -0.2,-0.9 0.1,-0.4 0.5,-0.6 0.8,-0.5 z m -1,2.8 c 0.3,0 0.4,0.5 0.3,0.9 -0.1,0.4 -0.4,0.6 -0.7,0.5 -0.3,0 -0.4,-0.5 -0.3,-0.9 0.1,-0.4 0.5,-0.6 0.7,-0.5 z m -0.9,2.8 c 0.3,0 0.4,0.5 0.3,0.9 -0.1,0.4 -0.4,0.7 -0.7,0.6 -0.3,0 -0.4,-0.5 -0.3,-0.9 0.1,-0.4 0.4,-0.7 0.7,-0.6 z m 6.1,-9.6 c 0.2,0.2 0.3,0.6 0,0.9 -0.2,0.3 -0.6,0.5 -0.8,0.4 -0.3,-0.1 -0.3,-0.6 0,-0.9 0.2,-0.4 0.6,-0.5 0.9,-0.3 z m -1.5,2.6 c 0.3,0.1 0.3,0.5 0.2,0.9 -0.2,0.4 -0.5,0.6 -0.8,0.5 -0.3,-0.1 -0.4,-0.5 -0.2,-0.9 0.2,-0.4 0.5,-0.6 0.8,-0.4 z m -1.1,2.7 c 0.3,0 0.4,0.5 0.3,0.9 -0.1,0.4 -0.4,0.6 -0.7,0.6 -0.3,0 -0.4,-0.5 -0.3,-0.9 0.1,-0.4 0.5,-0.6 0.7,-0.5 z m 181.9,523 c 2.3,-2.2 1.6,-5.7 1.2,-7.9 -1.2,-6.7 -6.8,-10.8 -8.7,-10.7 -0.3,0 -0.6,0 -0.6,0 -1.5,0.4 -2.3,2 -2.6,2.6 -1.2,2.4 -1.6,7.4 0.9,12.4 1.1,2.2 2,4.1 4.2,4.8 1.9,0.6 4.2,0 5.6,-1.3 z M 50.5,49.4 c 20.8,18.8 52.9,18 72,17.6 9.7,-0.2 24.5,-0.6 45.1,2.8 0,0 4.3,0.8 8.6,2 31.4,9.5 49.9,30.3 52,27.9 C 229.7,98 220.5,86 209,74.6 197.7,63.5 168.4,35.5 119,24.4 88.2,17.5 43,15.5 38.6,28.8 c -2.5,7.4 8.3,17.1 12,20.4 z M 64.1,33.6 c 1.3,-4.2 8.9,-5.1 11.9,-5.5 22.9,-3 74.4,19.1 72.1,25.1 -1,2.6 -10,-2.7 -39.2,-4.1 -19.9,-0.9 -35,0.6 -42.2,-8.2 -0.8,-1 -3.5,-4.3 -2.6,-7.2 z M 178.5,92 C 114.7,72 87.4,92.5 57.2,69.1 42.3,57.5 32.5,41.6 23.4,45 c -6.2,2.3 -8,12.2 -9.1,17.6 -0.4,2.2 -3.5,20 7.6,32.2 4.1,4.5 9.7,7.1 20.8,12.3 2,0.9 7,3.2 14.1,5.6 7.3,2.5 16,4.7 28.7,6.9 20.1,3.4 52,7.2 94.3,3.2 21.2,-2 38.3,-3.8 39.1,-9.3 1.2,-8.5 -36.2,-20.2 -40.4,-21.6 z M 36.7,76.2 c 4.6,-5.5 22.2,4.4 44.3,12.7 39.6,14.7 67.3,14.3 67,16.9 -0.4,3.5 -50.8,-1.2 -54.4,-1.6 C 53.3,100.4 41.7,95.2 37.4,86.3 37,85.5 34.1,79.2 36.7,76.2 Z m 34.5,53.2 c -26.5,-10.3 -39.4,-22.5 -46,-17.2 -4.5,3.6 -3.1,12.4 -1.9,20 0.8,5.1 4,22.8 19.2,33.8 5.7,4.1 11,5.8 14.4,6.8 43.9,13 84.9,6.6 84.9,6.6 15.3,-2.4 35.9,-5.7 57.3,-19.7 12.6,-8.2 25.2,-20 23.3,-23.3 -2.2,-3.9 -18.2,5 -46.3,8 -24.3,2.6 -43.8,-0.8 -60.8,-3.8 -14.1,-2.5 -27.4,-4.8 -44.2,-11.3 z m -10,28.4 C 51.1,153.9 47.1,150.1 44.8,146 43,142.9 40,135.8 42.6,133.1 c 4.1,-4.3 17.8,7.4 42.4,16 25.4,8.9 43.5,8 43.4,10.7 0,2.7 -18.6,4.3 -31.3,4.2 -11.3,0 -23.2,-1.3 -35.8,-6.2 z m 29.6,35.4 c -18,-5.8 -31.4,-16 -37.7,-10.3 -4.2,3.7 -2.5,11.9 -1.5,16.5 3.5,16.6 16.3,36.1 35.7,43.5 27.3,10.5 55.6,-7.6 79,-22.7 34.9,-22.4 57.2,-53.4 54.8,-56 -1.7,-1.9 -11.3,8.3 -31.7,17.7 -10.2,4.7 -54.9,25.4 -98.7,11.3 z m 8.4,30 c -12.4,-1.3 -15.5,-5.5 -16.5,-7.3 -1.1,-2 -2.5,-6 -0.8,-8.7 3.5,-5.7 17.1,-0.9 34.2,0.5 29,2.3 47.9,-7 48.7,-4.5 0.8,2.7 -21.2,11.2 -33,15.1 -11.1,3.7 -21,6.1 -32.5,4.8 z m -12.7,65.4 c -9.8,12.9 -25.3,34 -23.8,61.6 1,18.5 9.8,41.1 19.8,41.4 9.4,0.3 19.5,-19 25.3,-46.3 1.7,-22.5 7.8,-50.5 26.4,-75.1 32,-42.2 85.9,-54.8 84.9,-57.1 -0.6,-1.4 -21.2,4.1 -47.6,16.2 -31.3,14.4 -61.5,28.2 -85.1,59.3 z m 2.2,63.6 c -1,6 -6.6,9 -10.2,7.7 -3,-1.1 -5.3,-5.3 -4.2,-9.9 1.4,-10.6 4.8,-25.6 14.1,-40.9 8.6,-14.3 20.7,-26.2 22.6,-24.8 1.6,1.1 -5.1,11.4 -11.8,28.8 -6,15.8 -8.9,29.6 -10.4,39.2 z m 19.4,44.3 c -4.4,20.7 -4.2,32.1 2.4,38.2 7.6,7 23.7,7.4 34.4,0.7 29.2,-18.3 -3,-76.9 28.2,-150.3 10.3,-24.1 24.3,-42.5 22.3,-43.8 -2.2,-1.5 -21.6,22 -36.8,43.5 -13.9,19.7 -39.4,58.9 -50.6,111.7 z m 27.9,24.2 c -2.7,2.6 -7.3,4.4 -10.6,3 -1.2,-0.5 -3.7,-2 -5.1,-8.4 -1.5,-6.5 -1.3,-15.2 9,-38.7 3.2,-7.3 8,-18.1 9.5,-17.6 1.1,0.4 -0.5,6.4 -1.4,14.3 -3,26.8 6.4,39.9 -1.5,47.4 z m 76,-161.1 c 2.2,-9.4 4.8,-22.3 2.2,-23.3 -3.2,-1.3 -12.4,15.2 -14.2,18.3 -13.8,25 -16.6,48.3 -18.8,69 -8.8,81.9 -3.9,87.2 -0.3,89.2 10.4,5.6 28.2,-7.8 34.7,-12.6 6.2,-4.7 19,-14.3 21,-28.7 1.7,-12.9 -5.9,-23.1 -10.3,-30 -9.4,-14.5 -18.3,-39 -14.2,-81.8 z m -13.5,127.3 c -15,-7.3 -3.6,-66.2 1.8,-66.1 1.5,0 1.1,4.4 5.7,15.9 6.3,15.9 11,17.6 12,27.3 0.2,2.3 1.5,14.1 -5.8,20 -3.4,2.8 -9.4,4.9 -13.7,2.8 z M 556.9,49.4 c -20.8,18.8 -52.9,18 -72,17.6 -9.7,-0.2 -24.5,-0.6 -45.1,2.8 0,0 -4.3,0.8 -8.6,2 -31.4,9.5 -49.9,30.3 -52,27.9 -1.5,-1.7 7.7,-13.7 19.2,-25.1 11.3,-11.1 40.6,-39.1 90,-50.2 30.8,-6.9 76,-8.9 80.4,4.4 2.5,7.4 -8.3,17.1 -12,20.4 z M 543.3,33.6 c -1.3,-4.2 -8.9,-5.1 -11.9,-5.5 -22.9,-3 -74.4,19.1 -72.1,25.1 1,2.6 10,-2.7 39.2,-4.1 19.9,-0.9 35,0.6 42.2,-8.2 0.8,-1 3.5,-4.3 2.6,-7.2 z M 428.8,92 C 492.6,72 519.9,92.5 550.1,69.1 565,57.5 574.8,41.6 583.9,45 c 6.2,2.3 8,12.2 9.1,17.6 0.4,2.2 3.5,20 -7.6,32.2 -4.1,4.5 -9.7,7.1 -20.8,12.3 -2,0.9 -7,3.2 -14.1,5.6 -7.3,2.5 -16,4.7 -28.7,6.9 -20.1,3.4 -52,7.2 -94.3,3.2 -21.2,-2 -38.3,-3.8 -39.1,-9.3 -1.2,-8.5 36.2,-20.2 40.4,-21.6 z M 570.6,76.2 c -4.6,-5.5 -22.2,4.4 -44.3,12.7 -39.6,14.7 -67.3,14.3 -67,16.9 0.4,3.5 50.8,-1.2 54.4,-1.6 40.3,-3.8 51.9,-9 56.2,-17.9 0.4,-0.8 3.3,-7.1 0.7,-10.1 z m -34.4,53.2 c 26.5,-10.3 39.4,-22.5 46,-17.2 4.5,3.6 3.1,12.4 1.9,20 -0.8,5.1 -4,22.8 -19.2,33.8 -5.7,4.1 -11,5.8 -14.4,6.8 -43.9,13 -84.9,6.6 -84.9,6.6 -15.3,-2.4 -35.9,-5.7 -57.3,-19.7 -12.6,-8.2 -25.2,-20 -23.3,-23.3 2.2,-3.9 18.2,5 46.3,8 24.3,2.6 43.8,-0.8 60.8,-3.8 14.1,-2.5 27.4,-4.8 44.2,-11.3 z m 10,28.4 c 10.1,-3.9 14.1,-7.7 16.4,-11.8 1.8,-3.1 4.8,-10.2 2.2,-12.9 -4.1,-4.3 -17.8,7.4 -42.4,16 -25.4,8.9 -43.5,8 -43.4,10.7 0,2.7 18.6,4.3 31.3,4.2 11.3,0 23.2,-1.3 35.8,-6.2 z m -29.7,35.4 c 18,-5.8 31.4,-16 37.7,-10.3 4.2,3.7 2.5,11.9 1.5,16.5 -3.5,16.6 -16.3,36.1 -35.7,43.5 -27.3,10.5 -55.6,-7.6 -79,-22.7 -34.9,-22.4 -57.2,-53.4 -54.8,-56 1.7,-1.9 11.3,8.3 31.7,17.7 10.2,4.7 54.9,25.4 98.7,11.3 z m -8.3,30 c 12.4,-1.3 15.5,-5.5 16.5,-7.3 1.1,-2 2.5,-6 0.8,-8.7 -3.5,-5.7 -17.1,-0.9 -34.2,0.5 -29,2.3 -47.9,-7 -48.7,-4.5 -0.8,2.7 21.2,11.2 33,15.1 11.1,3.7 21,6.1 32.5,4.8 z m 12.6,65.4 c 9.8,12.9 25.3,34 23.8,61.6 -1,18.5 -9.8,41.1 -19.8,41.4 -9.4,0.3 -19.5,-19 -25.3,-46.3 -1.7,-22.5 -7.8,-50.5 -26.4,-75.1 -32,-42.2 -85.9,-54.8 -84.9,-57.1 0.6,-1.4 21.2,4.1 47.6,16.2 31.3,14.4 61.5,28.2 85.1,59.3 z m -2.2,63.6 c 1,6 6.6,9 10.2,7.7 3,-1.1 5.3,-5.3 4.2,-9.9 -1.4,-10.6 -4.8,-25.6 -14.1,-40.9 -8.6,-14.3 -20.7,-26.2 -22.6,-24.8 -1.6,1.1 5.1,11.4 11.8,28.8 6,15.8 8.9,29.6 10.4,39.2 z m -19.3,44.3 c 4.4,20.7 4.2,32.1 -2.4,38.2 -7.6,7 -23.7,7.4 -34.4,0.7 -29.2,-18.3 3,-76.9 -28.2,-150.3 C 424,261 410,242.6 412,241.3 c 2.2,-1.5 21.6,22 36.8,43.5 13.9,19.7 39.4,58.9 50.6,111.7 z m -28,24.2 c 2.7,2.6 7.3,4.4 10.6,3 1.2,-0.5 3.7,-2 5.1,-8.4 1.5,-6.5 1.3,-15.2 -9,-38.7 -3.2,-7.3 -8,-18.1 -9.5,-17.6 -1.1,0.4 0.5,6.4 1.4,14.3 3,26.8 -6.4,39.9 1.5,47.4 z m -76,-161.1 c -2.2,-9.4 -4.8,-22.3 -2.2,-23.3 3.2,-1.3 12.4,15.2 14.2,18.3 13.8,25 16.6,48.3 18.8,69 8.8,81.9 3.9,87.2 0.3,89.2 -10.4,5.6 -28.2,-7.8 -34.7,-12.6 -6.2,-4.7 -19,-14.3 -21,-28.7 -1.7,-12.9 5.9,-23.1 10.3,-30 9.4,-14.5 18.3,-39 14.2,-81.8 z m 13.5,127.3 c 15,-7.3 3.6,-66.2 -1.8,-66.1 -1.5,0 -1.1,4.4 -5.7,15.9 -6.3,15.9 -11,17.6 -12,27.3 -0.2,2.3 -1.5,14.1 5.8,20 3.4,2.8 9.4,4.9 13.7,2.8 z"
     style="fill:#000000" />
</svg>
