<?xml version="1.0" encoding="UTF-8" standalone="no"?>
<svg
   id="Export_paths_29.6.2025"
   version="1.1"
   viewBox="0 0 608.6 576.2"
   sodipodi:docname="Butterfly_Front_Copper.svg"
   inkscape:version="1.4.2 (ebf0e940d0, 2025-05-08)"
   xmlns:inkscape="http://www.inkscape.org/namespaces/inkscape"
   xmlns:sodipodi="http://sodipodi.sourceforge.net/DTD/sodipodi-0.dtd"
   xmlns="http://www.w3.org/2000/svg"
   xmlns:svg="http://www.w3.org/2000/svg">
  <sodipodi:namedview
     id="namedview1"
     pagecolor="#ffffff"
     bordercolor="#666666"
     borderopacity="1.0"
     inkscape:showpageshadow="2"
     inkscape:pageopacity="0.0"
     inkscape:pagecheckerboard="0"
     inkscape:deskcolor="#d1d1d1"
     inkscape:zoom="1.9507115"
     inkscape:cx="415.48943"
     inkscape:cy="291.17582"
     inkscape:window-width="3440"
     inkscape:window-height="1335"
     inkscape:window-x="0"
     inkscape:window-y="0"
     inkscape:window-maximized="1"
     inkscape:current-layer="Export_paths_29.6.2025" />
  <!-- Generator: Adobe Illustrator 29.6.0, SVG Export Plug-In . SVG Version: 2.1.1 Build 207)  -->
  <defs
     id="defs1">
    <style
       id="style1">
      .st0 {
        fill: #e3ba4d;
      }

      .st1 {
        fill: #fff;
      }

      .st2 {
        fill: #939598;
      }

      .st3 {
        fill: #2e3192;
      }
    </style>
  </defs>
  <path
     style="fill:#000000;fill-opacity:1"
     d="m 391.3,200.4 c -2,6.5 -8,29 3.8,44.7 19.8,26.1 70.9,8.5 76.8,6.3 39.5,-14.2 58.1,-49 63.7,-60.5 -30.5,34.4 -73.1,49.1 -107.7,36.8 -17.6,-6.2 -29.5,-18.1 -36.7,-27.3 z"
     id="path14" />
  <path
     style="fill:#000000;fill-opacity:1"
     d="m 544.8,149.5 c 0.2,-3 0.3,-9.3 -3.8,-13.7 -9.5,-10.1 -27.8,4.6 -55.8,-1 -16.4,-3.3 -15.5,-9.4 -34.4,-12.7 -12.8,-2.2 -29.5,-4.8 -41.1,5.1 -14.4,12.3 -10.8,35.2 -10.4,38.3 0.2,1.4 3.8,23 23.1,34.7 5.9,3.6 13.7,6.5 25.5,7.1 43.7,2.2 95.2,-28.9 96.9,-57.9 z"
     id="path13" />
  <path
     style="fill:#000000;fill-opacity:1"
     d="m 506.4,97.8 c 31.8,2.3 54.5,-23.1 50.3,-42.7 -3.5,-16.4 -29,-26.9 -55,-24.9 -55.5,4.4 -119.4,50.5 -112.2,72.9 12.3,-20.2 20.3,-12.3 116.9,-5.3 z"
     id="path12" />
  <path
     style="fill:#000000;fill-opacity:1"
     d="m 180.7,227.7 c -34.6,12.2 -77.1,-2.4 -107.7,-36.8 5.5,11.5 24.2,46.3 63.7,60.5 6,2.1 57.1,19.8 76.8,-6.3 11.8,-15.6 5.8,-38.2 3.8,-44.7 -7.2,9.2 -19.1,21.1 -36.7,27.3 z"
     id="path8" />
  <path
     style="fill:#000000;fill-opacity:1"
     d="m 160.8,207.4 c 11.9,-0.6 19.6,-3.5 25.5,-7.1 19.3,-11.7 22.9,-33.3 23.1,-34.7 0.5,-3.1 4,-26 -10.4,-38.3 -11.6,-9.9 -28.3,-7.3 -41.1,-5.1 -18.9,3.3 -18,9.5 -34.4,12.7 -28,5.6 -46.4,-9.2 -55.8,1 -4.1,4.4 -4,10.7 -3.8,13.7 1.8,29 53.3,60 96.9,57.9 z"
     id="path7" />
  <path
     style="fill:#000000;fill-opacity:1"
     d="M 219.2,103.1 C 226.4,80.6 162.5,34.5 107,30.2 c -26.1,-2 -51.5,8.5 -55,24.9 -4.2,19.6 18.5,45 50.3,42.7 96.6,-7 104.6,-14.9 116.9,5.3 z"
     id="path6" />
  <path
     id="path5"
     style="fill:#000000;fill-opacity:1"
     d="m 199.30078,271 c 1.8,1.9 3.8,4.30078 5.5,7.30078 5.5,9.6 5.29883,19.29844 4.79883,23.89844 -0.2,0.7 -0.3,1.40156 -0.5,2.10156 -0.4,-0.7 -0.89883,-1.3 -1.29883,-2 -1.5,-2.5 -4.60078,-7.00156 -10.30078,-10.60156 -7.3,-4.5 -14.40078,-4.79922 -17.30078,-4.69922 3.2,5.3 5.7,11 7.5,17 2,6.7 3.10078,13.6 3.30078,20.5 v 2.40039 L 189.59961,325 c -6.2,-8 -13.20039,-15.29922 -20.90039,-21.69922 -6.4,-5.3 -13.19844,-10.00039 -20.39844,-13.90039 3.1,6.4 5.79961,13.09883 8.09961,19.79883 3,8.8 5.3,17.90156 7,27.10156 l 0.5,2.89844 L 162,337 c -7.7,-9 -16.49922,-16.9 -26.19922,-23.5 -7.5,-5.1 -15.50078,-9.39922 -23.80078,-12.69922 3,9.6 6.39961,19.09883 10.09961,28.29883 4.2,10.7 8.9,21.29961 14,31.59961 l 0.90039,1.90039 -1.90039,-0.69922 c -11.5,-4.2 -22.10039,-10.60039 -31.40039,-18.90039 -5.700001,-5.1 -10.898439,-10.79961 -15.398439,-17.09961 2.1,7.9 4.499219,15.69883 7.199219,23.29883 3,8.2 6.3,16.3 10,24 l 0.80078,1.70117 -1.70117,-0.5 C 88.60058,369.78529 77.80758,360.55522 71.857422,354.17383 a 85.353477,93.811928 0 0 0 22.220703,50.88086 C 92.542611,399.01912 91.577729,391.50267 92,382.40039 V 380 h 0.002 c 0.117671,0.0292 1.398438,1.90039 1.398438,1.90039 4.1,6 8.698832,11.59961 13.798832,16.59961 6.5,6.4 13.7,11.79922 21.5,16.19922 -3.4,-6.5 -6.19883,-13.29844 -8.29883,-20.39844 -2.8,-9.4 -4.40117,-19.1 -4.70117,-29 v -2.67383 c 0.0894,0.25086 1.40039,2.17383 1.40039,2.17383 6.1,8.8 12.90078,17.09961 20.30078,24.59961 6.9,7 14.39922,13.49922 22.19922,19.19922 -4.2,-8.8 -7.50039,-18 -9.90039,-27.5 -2.8,-11 -4.3,-22.39883 -4.5,-33.79883 v -2.20117 l 1.30078,1.59961 c 6.9,8 13.99922,15.80156 21.19922,23.10156 7.3,7.5 14.90156,14.89961 22.60156,22.09961 -0.6,-9.8 -2.00156,-19.70078 -4.10156,-29.30078 -2.2,-9.8 -5.09922,-19.49883 -8.69922,-28.79883 l -0.90039,-2.20117 2,1.09961 c 6.6,3.8 12.8,8.40117 18.5,13.70117 5.5,5.1 10.50039,10.70039 14.90039,16.90039 -1,-8.8 -2.6,-17.5 -5,-26 -2.3,-8.6 -5.39961,-17.10117 -9.09961,-25.20117 l -0.80078,-1.69922 1.70117,0.5 c 7.1,2.1 13.69961,5.59883 19.59961,10.29883 0.4,0.3 0.79883,0.7 1.29883,1 -0.4,-5.8 0,-12.29922 1.5,-19.69922 1.6,-7.3 3.70156,-12.40039 3.10156,-17.40039 l 0.29883,0.30078 c -1.7,-2.6 -3.70039,-4.80117 -5.90039,-6.70117 -4,-3.5 -8.89844,-6.09922 -19.39844,-7.69922 z" />
  <path
     id="path4"
     style="fill:#000000;fill-opacity:1"
     d="m 155,268.19922 c -24.1,0 -40.11711,-3.97252 -54.81711,5.42748 -13.500004,8.6 -17.432356,16.84262 -19.632356,20.64262 -1.485639,2.76199 -3.676405,7.8954 -3.750917,8.02972 -5.309044,13.02793 -6.24841,25.48657 -5.799617,38.60135 0.121778,3.55865 0.184638,7.11857 0.552734,10.65625 5.16997,5.95327 15.683728,15.88449 31.947266,21.04297 -3.4,-7.2 -6.499219,-14.80039 -9.199219,-22.40039 v -0.0996 c -3.3,-9.1 -6.10039,-18.39883 -8.40039,-27.79883 l 1.40039,-0.70117 c 5,7.6 10.89961,14.50039 17.599609,20.40039 8.7,7.7 18.4,13.70039 29,17.90039 -4.7,-9.7 -9.09961,-19.80078 -13.09961,-29.80078 -3.9,-9.8 -7.50156,-19.99961 -10.60156,-30.09961 l -0.5,-1.69922 1.5,0.59961 c 8.9,3.4 17.60117,8.00039 25.70117,13.40039 9,6.1 17.19961,13.29961 24.59961,21.59961 C 159.9,325.80039 157.79961,317.7 155.09961,310 152.59961,302.5 149.5,295.09961 146,288.09961 l -1.19922,-2.29883 2.19922,1.09961 c 8,4.2 15.70078,9.39922 22.80078,15.19922 7.1,5.9 13.69961,12.69961 19.59961,20.09961 -0.3,-6 -1.39961,-11.89961 -3.09961,-17.59961 -1.9,-6.4 -4.70078,-12.5 -8.30078,-18 l -0.90039,-1.5 h 1.59961 c 3,0 11.20039,-0.20039 19.40039,5.09961 5.8,3.7 9,8.50156 10.5,11.10156 0.2,-4.3 0,-13.00039 -5,-21.90039 -2.1,-3.8 -4.59883,-6.60117 -6.79883,-8.70117 -1.8,-0.2 -3.70039,-0.39961 -5.90039,-0.59961 -15.4,-1.2 -29.00039,-1.90039 -35.90039,-1.90039 z"
     sodipodi:nodetypes="scccscccccccccccccccccccccccscccccs" />
  <path
     id="path3"
     style="fill:#000000;fill-opacity:1"
     d="m 200.30078,313.30078 c 3.4,7.7 6.2,15.69883 8.5,23.79883 2.6,9.6 4.39883,19.50078 5.29883,29.30078 l 0.30078,3.09961 -1.70117,-2.5 c -4.8,-7 -10.29844,-13.4 -16.39844,-19 -5.1,-4.7 -10.50078,-8.80078 -16.30078,-12.30078 3.3,8.7 5.9,17.70078 8,26.80078 2.3,10.3 3.70078,20.99961 4.30078,31.59961 v 1.98242 C 192.21214,395.92499 191,394.80078 191,394.80078 c -8.3,-7.6 -16.39961,-15.40039 -24.09961,-23.40039 -6.7,-6.9 -13.30078,-14.09961 -19.80078,-21.59961 0.4,10.5 1.80039,20.99922 4.40039,31.19922 2.6,10.5 6.39922,20.59961 11.19922,30.09961 l -1.09961,1.09961 c -8.9,-6.2 -17.3,-13.39883 -25,-21.29883 -6.8,-7 -13.2,-14.60117 -19,-22.70117 0.5,8.8 2,17.40078 4.5,25.80078 2.4,7.9 5.5,15.5 9.5,22.5 L 133,419 l -2.40039,-1.30078 c -8.9,-4.7 -16.99883,-10.59922 -24.29883,-17.69922 -4.6,-4.5 -8.801171,-9.50039 -12.701171,-14.90039 -0.224015,9.3713 1.141311,16.93017 2.992188,22.78125 10.657593,11.48754 23.869883,19.7022 38.318363,23.82422 5.00951,0.92027 10.08315,1.38288 15.16601,1.38281 1.31884,-1.1e-4 2.50937,0.0968 3.95508,-0.0937 28.04102,-5.69048 52.53232,-27.69848 64.76953,-48.29492 2.4,-4 4.49844,-8.29844 6.39844,-12.89844 3.4,-17.9 -3.59883,-30.1 -5.29883,-47 h 0.19922 c -0.8,-0.7 -1.60039,-1.4 -2.40039,-2 -5.3,-4.3 -11.09844,-7.5 -17.39844,-9.5 z"
     sodipodi:nodetypes="ccccccccccccccccccccccccccsccccccc" />
  <path
     style="fill:#000000;fill-opacity:1"
     d="m 295.3,34.4 c -1.9,-13.6 -6.4,-24.1 -10.1,-31 0,0 0,0 0,0 -3.6,-1.9 -7.9,-3.1 -12.3,-2.2 -13,2.9 -21.5,24.7 -16.6,41.5 3.7,12.8 14.1,19.6 18.1,22 3.4,-3.1 9.6,-7.4 17.6,-8.3 1.2,-0.1 2.4,-0.2 3.6,-0.2 0.6,-5.9 0.8,-13.4 -0.3,-21.9 z"
     id="path2" />
  <path
     style="fill:#000000;fill-opacity:1"
     d="m 313.3,34.4 c 1.9,-13.6 6.4,-24.1 10.1,-31 0,0 0,0 0,0 3.6,-1.9 7.9,-3.1 12.3,-2.2 13,2.9 21.5,24.7 16.6,41.5 -3.7,12.8 -14.1,19.6 -18.1,22 -3.4,-3.1 -9.6,-7.4 -17.6,-8.3 -1.2,-0.1 -2.4,-0.2 -3.6,-0.2 -0.6,-5.9 -0.8,-13.4 0.3,-21.9 z"
     id="Kupfer" />
  <path
     id="path19"
     style="fill:#000000;fill-opacity:1"
     d="m 408.98491,271.1602 c -1.8,1.9 -3.8,4.30078 -5.5,7.30078 -5.5,9.6 -5.29883,19.29844 -4.79883,23.89844 0.2,0.7 0.3,1.40156 0.5,2.10156 0.4,-0.7 0.89883,-1.3 1.29883,-2 1.5,-2.5 4.60078,-7.00156 10.30078,-10.60156 7.3,-4.5 14.40078,-4.79922 17.30078,-4.69922 -3.2,5.3 -5.7,11 -7.5,17 -2,6.7 -3.10078,13.6 -3.30078,20.5 v 2.40039 l 1.40039,-1.90039 c 6.2,-8 13.20039,-15.29922 20.90039,-21.69922 6.4,-5.3 13.19844,-10.00039 20.39844,-13.90039 -3.1,6.4 -5.79961,13.09883 -8.09961,19.79883 -3,8.8 -5.3,17.90156 -7,27.10156 l -0.5,2.89844 1.90039,-2.19922 c 7.7,-9 16.49922,-16.9 26.19922,-23.5 7.5,-5.1 15.50078,-9.39922 23.80078,-12.69922 -3,9.6 -6.39961,19.09883 -10.09961,28.29883 -4.2,10.7 -8.9,21.29961 -14,31.59961 l -0.90039,1.90039 1.90039,-0.69922 c 11.5,-4.2 22.10039,-10.60039 31.40039,-18.90039 5.7,-5.1 10.89844,-10.79961 15.39844,-17.09961 -2.1,7.9 -4.49922,15.69883 -7.19922,23.29883 -3,8.2 -6.3,16.3 -10,24 l -0.80078,1.70117 1.70117,-0.5 c 15.99903,-4.6151 26.79203,-13.84517 32.74219,-20.22656 a 85.353477,93.811928 0 0 1 -22.2207,50.88086 c 1.53551,-6.03557 2.50039,-13.55202 2.07812,-22.6543 v -2.40039 h -0.002 c -0.11767,0.0292 -1.39844,1.90039 -1.39844,1.90039 -4.1,6 -8.69883,11.59961 -13.79883,16.59961 -6.5,6.4 -13.7,11.79922 -21.5,16.19922 3.4,-6.5 6.19883,-13.29844 8.29883,-20.39844 2.8,-9.4 4.40117,-19.1 4.70117,-29 v -2.67383 c -0.0894,0.25086 -1.40039,2.17383 -1.40039,2.17383 -6.1,8.8 -12.90078,17.09961 -20.30078,24.59961 -6.9,7 -14.39922,13.49922 -22.19922,19.19922 4.2,-8.8 7.50039,-18 9.90039,-27.5 2.8,-11 4.3,-22.39883 4.5,-33.79883 v -2.20117 l -1.30078,1.59961 c -6.9,8 -13.99922,15.80156 -21.19922,23.10156 -7.3,7.5 -14.90156,14.89961 -22.60156,22.09961 0.6,-9.8 2.00156,-19.70078 4.10156,-29.30078 2.2,-9.8 5.09922,-19.49883 8.69922,-28.79883 l 0.90039,-2.20117 -2,1.09961 c -6.6,3.8 -12.8,8.40117 -18.5,13.70117 -5.5,5.1 -10.50039,10.70039 -14.90039,16.90039 1,-8.8 2.6,-17.5 5,-26 2.3,-8.6 5.39961,-17.10117 9.09961,-25.20117 l 0.80078,-1.69922 -1.70117,0.5 c -7.1,2.1 -13.69961,5.59883 -19.59961,10.29883 -0.4,0.3 -0.79883,0.7 -1.29883,1 0.4,-5.8 0,-12.29922 -1.5,-19.69922 -1.6,-7.3 -3.70156,-12.40039 -3.10156,-17.40039 l -0.29883,0.30078 c 1.7,-2.6 3.70039,-4.80117 5.90039,-6.70117 4,-3.5 8.89844,-6.09922 19.39844,-7.69922 z" />
  <path
     id="path21"
     style="fill:#000000;fill-opacity:1"
     d="m 407.98491,313.46098 c -3.4,7.7 -6.2,15.69883 -8.5,23.79883 -2.6,9.6 -4.39883,19.50078 -5.29883,29.30078 l -0.30078,3.09961 1.70117,-2.5 c 4.8,-7 10.29844,-13.4 16.39844,-19 5.1,-4.7 10.50078,-8.80078 16.30078,-12.30078 -3.3,8.7 -5.9,17.70078 -8,26.80078 -2.3,10.3 -3.70078,20.99961 -4.30078,31.59961 v 1.98242 c 0.0886,-0.15704 1.30078,-1.28125 1.30078,-1.28125 8.3,-7.6 16.39961,-15.40039 24.09961,-23.40039 6.7,-6.9 13.30078,-14.09961 19.80078,-21.59961 -0.4,10.5 -1.80039,20.99922 -4.40039,31.19922 -2.6,10.5 -6.39922,20.59961 -11.19922,30.09961 l 1.09961,1.09961 c 8.9,-6.2 17.3,-13.39883 25,-21.29883 6.8,-7 13.2,-14.60117 19,-22.70117 -0.5,8.8 -2,17.40078 -4.5,25.80078 -2.4,7.9 -5.5,15.5 -9.5,22.5 l -1.40039,2.5 2.40039,-1.30078 c 8.9,-4.7 16.99883,-10.59922 24.29883,-17.69922 4.6,-4.5 8.80117,-9.50039 12.70117,-14.90039 0.22402,9.3713 -1.14131,16.93017 -2.99219,22.78125 -10.65759,11.48754 -23.86988,19.7022 -38.31836,23.82422 -5.00951,0.92027 -10.08315,1.38288 -15.16601,1.38281 -1.31884,-1.1e-4 -2.50937,0.0968 -3.95508,-0.0937 -28.04102,-5.69048 -52.53232,-27.69848 -64.76953,-48.29492 -2.4,-4 -4.49844,-8.29844 -6.39844,-12.89844 -3.4,-17.9 3.59883,-30.1 5.29883,-47 h -0.19922 c 0.8,-0.7 1.60039,-1.4 2.40039,-2 5.3,-4.3 11.09844,-7.5 17.39844,-9.5 z"
     sodipodi:nodetypes="ccccccccccccccccccccccccccsccccccc" />
  <path
     id="path1"
     style="fill:#000000;fill-opacity:1"
     d="m 453.28602,268.19922 c 24.1,0 40.11711,-3.97252 54.81711,5.42748 13.5,8.6 17.43236,16.84262 19.63236,20.64262 1.48563,2.76199 3.6764,7.8954 3.75091,8.02972 5.30905,13.02793 6.24841,25.48657 5.79962,38.60135 -0.12178,3.55865 -0.18464,7.11857 -0.55273,10.65625 -5.16997,5.95327 -15.68373,15.88449 -31.94727,21.04297 3.4,-7.2 6.49922,-14.80039 9.19922,-22.40039 v -0.0996 c 3.3,-9.1 6.10039,-18.39883 8.40039,-27.79883 l -1.40039,-0.70117 c -5,7.6 -10.89961,14.50039 -17.59961,20.40039 -8.7,7.7 -18.4,13.70039 -29,17.90039 4.7,-9.7 9.09961,-19.80078 13.09961,-29.80078 3.9,-9.8 7.50156,-19.99961 10.60156,-30.09961 l 0.5,-1.69922 -1.5,0.59961 c -8.9,3.4 -17.60117,8.00039 -25.70117,13.40039 -9,6.1 -17.19961,13.29961 -24.59961,21.59961 1.6,-8.10001 3.70039,-16.2004 6.40039,-23.9004 2.5,-7.5 5.59961,-14.90039 9.09961,-21.90039 l 1.19922,-2.29883 -2.19922,1.09961 c -8,4.2 -15.70078,9.39922 -22.80078,15.19922 -7.1,5.9 -13.69961,12.69961 -19.59961,20.09961 0.3,-6 1.39961,-11.89961 3.09961,-17.59961 1.9,-6.4 4.70078,-12.5 8.30078,-18 l 0.90039,-1.5 h -1.59961 c -3,0 -11.20039,-0.20039 -19.40039,5.09961 -5.8,3.7 -9,8.50156 -10.5,11.10156 -0.2,-4.3 0,-13.00039 5,-21.90039 2.1,-3.8 4.59883,-6.60117 6.79883,-8.70117 1.8,-0.2 3.70039,-0.39961 5.90039,-0.59961 15.4,-1.2 29.00039,-1.90039 35.90039,-1.90039 z"
     sodipodi:nodetypes="scccscccccccccccccccccccccccscccccs" />
</svg>
