<?xml version="1.0" encoding="UTF-8" standalone="no"?>
<svg
   id="Export_paths_29.6.2025"
   version="1.1"
   viewBox="0 0 608.4 577.3"
   sodipodi:docname="Butterfly_Back_Copper.svg"
   inkscape:version="1.4.2 (ebf0e940d0, 2025-05-08)"
   xmlns:inkscape="http://www.inkscape.org/namespaces/inkscape"
   xmlns:sodipodi="http://sodipodi.sourceforge.net/DTD/sodipodi-0.dtd"
   xmlns="http://www.w3.org/2000/svg"
   xmlns:svg="http://www.w3.org/2000/svg">
  <sodipodi:namedview
     id="namedview1"
     pagecolor="#ffffff"
     bordercolor="#666666"
     borderopacity="1.0"
     inkscape:showpageshadow="2"
     inkscape:pageopacity="0.0"
     inkscape:pagecheckerboard="0"
     inkscape:deskcolor="#d1d1d1"
     inkscape:zoom="0.97349734"
     inkscape:cx="-21.058096"
     inkscape:cy="379.04572"
     inkscape:window-width="3440"
     inkscape:window-height="1335"
     inkscape:window-x="0"
     inkscape:window-y="0"
     inkscape:window-maximized="1"
     inkscape:current-layer="Export_paths_29.6.2025" />
  <!-- Generator: Adobe Illustrator 29.6.0, SVG Export Plug-In . SVG Version: 2.1.1 Build 207)  -->
  <defs
     id="defs1">
    <style
       id="style1">
      .st0 {
        fill: #e3ba4d;
      }

      .st1 {
        fill: #fff;
      }

      .st2 {
        fill: #939598;
      }

      .st3 {
        fill: #2e3192;
      }
    </style>
  </defs>
  <path
     d="m 491.4,16.4 c 9.7,11 22.4,27.8 29.6,49.6 l 0.6,-0.8 c 1.9,-3.5 3.3,-7.3 4.1,-11.2 1.2,-6 1.1,-12.3 -0.3,-18.3 l 1.5,-0.7 c 5.1,7.8 9.1,16.1 11.9,24.9 4.5,14.2 5.9,29.6 4,44.8 3.9,-7.7 6.5,-15.9 7.9,-24.3 3.3,-19.7 -1,-36.3 -5.2,-46.9 l 1.5,-0.8 c 7.4,9.1 12.9,19.4 16.2,30.5 5,17 3.9,32.4 1.5,43.5 4.7,-8.1 8,-16.7 10,-25.8 4.5,-21.1 0.1,-39.2 -4.3,-50.6 l 1.5,-0.8 c 6.1,8.6 11,17.9 14.3,27.8 6.6,19.1 6.6,36.8 4.9,50.1 3.5,-9.6 5.9,-19.6 7,-29.7 1.9,-16.8 0.6,-33.6 -4,-50 l 2.1,1 C 575.3,4.7 531.8,6.2 491.4,16.4 Z"
     id="path13" />
  <path
     d="m 567.5,143.5 1.7,0.4 c -1.7,14 -4.8,27.7 -9.3,40.9 -5.1,15 -12,29.3 -20.5,42.7 5.4,-6.2 10.7,-12.7 15.7,-19.3 14.2,-18.5 26.9,-38.5 37.7,-59.2 l 0.2,1.9 c 0.2,-0.5 0.4,-1.1 0.6,-1.6 5.7,-15.9 10.1,-33 12.3,-51.4 3.1,-24.5 5.7,-48.7 -7.4,-66.4 l -1.8,-1 c 3.9,15.6 5,31.5 3.1,47.4 -1.5,12.9 -4.9,25.4 -10,37.3 l -1.6,-0.5 c 2.6,-13.5 4.1,-34.3 -3.6,-56.9 -2.6,-7.6 -6.1,-15 -10.5,-21.9 3.6,11.5 6,27.4 2.2,45.3 -2.3,11 -6.7,21.3 -13,30.8 l -1.5,-0.7 c 3.1,-11 5.5,-28.3 -0.2,-47.8 -2.7,-9.2 -6.9,-17.8 -12.5,-25.6 3.5,10.7 6.2,25.5 3.4,42.6 -1.7,10.2 -5.2,20 -10.5,29.2 l -1.6,-0.6 c 2.9,-16.5 1.8,-33.4 -3.2,-48.8 -2.3,-7.2 -5.4,-14.1 -9.3,-20.7 0.7,4.9 0.5,9.8 -0.5,14.6 -0.9,4.6 -2.6,9 -5,13.1 h -0.9 c 1.9,6 3.4,12.4 4.3,19.2 2.2,16.6 0.5,32.6 -3.1,47.7 l 1.2,-1.3 c 1,12.4 0.5,24.9 -1.5,37.1 -2.4,14.5 -6.9,28.6 -13.4,41.9 4.9,-7.2 9.5,-14.7 13.5,-22.4 8.7,-16.5 15.5,-34.2 20,-52.4 l 1.7,0.2 c 0.5,12.2 -0.5,24.3 -3,36.2 -3.6,17.2 -10.2,33.5 -19.7,48.6 7.2,-7.8 13.8,-16.1 19.8,-24.8 11.3,-16.5 20.2,-34.7 26.5,-53.8 z"
     id="path12" />
  <path
     d="m 491.4,251.1 c 3.4,4.3 10.5,10.1 27,11.3 22.4,-21.9 53.4,-57.7 72.4,-105.8 l -3,5 c -9.3,16.6 -19.8,32.5 -31.4,47.6 -7.7,10 -15.8,19.7 -24.3,28.9 l -1.3,-1.1 c 11.8,-16.2 21.1,-34 27.5,-52.8 3.5,-10.4 6.2,-21.1 8,-32 -6.1,16.3 -14.1,31.8 -23.8,46.1 -7.8,11.4 -16.8,22.2 -26.7,31.9 l -1.3,-1.1 c 12.3,-17 20.6,-35.8 24.9,-55.9 2,-9.7 3.1,-19.7 3.1,-29.6 -4.5,16.3 -10.8,32 -18.6,46.9 -6.1,11.6 -13.3,22.8 -21.3,33.2 l -1.4,-1 c 9.8,-16.4 16.4,-34.2 19.5,-52.8 1.7,-10.3 2.3,-20.9 1.9,-31.4 l -0.5,-1.5 c -13.2,50.9 -48.2,91.8 -30.6,114.1 z"
     id="path11" />
  <path
     d="m 478.2,394.4 c -3.9,0 -7,6.3 -7,14 0,7.7 3.1,14 7,14 3.9,0 7,-6.3 7,-14 0,-7.7 -3.1,-14 -7,-14 z"
     id="path10" />
  <path
     d="m 404.8,355.9 c -3.8,-0.8 -8,3.8 -9.3,10.3 -1.4,6.5 0.6,12.4 4.4,13.2 3.8,0.8 8,-3.8 9.3,-10.3 1.3,-6.5 -0.6,-12.4 -4.4,-13.2 z"
     id="path9" />
  <path
     d="m 522.2,336.1 c -2.8,0.7 -3.8,6 -2.2,11.8 1.6,5.8 5,9.9 7.8,9.2 2.8,-0.7 3.8,-6 2.2,-11.8 -1.6,-5.8 -5,-9.9 -7.8,-9.2 z"
     id="path8" />
  <path
     d="m 11.2,28.7 2.1,-1 c -4.6,16.4 -5.9,33.2 -4,50 1.2,10.2 3.5,20.1 7,29.7 -1.7,-13.3 -1.6,-31.1 4.9,-50.1 3.4,-9.8 8.2,-19.2 14.3,-27.8 l 1.5,0.8 c -4.4,11.5 -8.8,29.6 -4.3,50.6 1.9,9 5.3,17.7 10,25.8 C 40.3,95.6 39.2,80.2 44.2,63.2 47.5,52.1 52.9,41.8 60.4,32.7 l 1.5,0.8 C 57.7,44 53.4,60.7 56.7,80.4 58.1,88.8 60.8,97 64.6,104.7 62.7,89.5 64,74.1 68.6,59.9 71.4,51.1 75.4,42.8 80.5,35 l 1.5,0.7 c -1.5,6 -1.6,12.3 -0.3,18.3 0.8,3.9 2.2,7.7 4.1,11.2 L 86.4,66 C 93.6,44.2 106.3,27.4 116,16.4 75.6,6.2 32.1,4.8 11.2,28.7 Z"
     id="path7" />
  <path
     d="m 66.3,197.3 c 5.9,8.7 12.6,17 19.8,24.8 C 76.6,207 70,190.8 66.4,173.5 c -2.5,-11.8 -3.5,-24 -3,-36.2 l 1.7,-0.2 c 4.5,18.2 11.3,35.9 20,52.4 4.1,7.7 8.6,15.2 13.5,22.4 -6.5,-13.3 -11,-27.3 -13.4,-41.9 -2,-12.2 -2.5,-24.7 -1.5,-37.1 l 1.2,1.3 c -3.7,-15.1 -5.4,-31.1 -3.1,-47.7 0.9,-6.8 2.4,-13.2 4.3,-19.3 h -0.9 c -2.4,-4 -4.1,-8.4 -5,-13 -1,-4.7 -1.2,-9.7 -0.5,-14.6 -3.9,6.5 -7,13.5 -9.3,20.7 -4.9,15.4 -6,32.3 -3.2,48.8 l -1.6,0.6 C 60.4,100.6 56.9,90.7 55.1,80.5 52.2,63.4 55,48.6 58.5,37.9 52.9,45.7 48.7,54.3 46,63.5 40.2,83 42.7,100.2 45.8,111.3 L 44.3,112 C 38,102.5 33.6,92.1 31.3,81.2 27.5,63.2 29.9,47.4 33.5,35.9 29.2,42.8 25.7,50.1 23,57.8 c -7.8,22.6 -6.3,43.4 -3.6,56.9 l -1.6,0.5 C 12.6,103.3 9.3,90.7 7.8,77.9 6,62 7,46.1 10.9,30.5 l -1.8,1 C -4.2,49.2 -1.5,73.4 1.5,97.9 c 2.3,18.4 6.6,35.5 12.3,51.4 0.2,0.5 0.4,1.1 0.6,1.6 l 0.2,-1.9 c 10.8,20.8 23.5,40.7 37.7,59.2 5,6.6 10.3,13 15.7,19.3 -8.5,-13.4 -15.4,-27.7 -20.5,-42.7 -4.5,-13.2 -7.6,-27 -9.3,-40.9 l 1.7,-0.4 c 6.3,19.2 15.2,37.3 26.5,53.8 z"
     id="path6" />
  <path
     d="m 85.4,137 -0.5,1.5 c -0.5,10.5 0.1,21 1.9,31.4 3.1,18.6 9.6,36.4 19.5,52.8 l -1.4,1 C 96.9,213.3 89.7,202.1 83.6,190.5 75.7,175.6 69.5,159.9 65,143.6 c 0,10 1.1,19.9 3.1,29.6 4.2,20.1 12.6,38.9 24.9,55.9 l -1.3,1.1 C 81.8,220.4 72.8,209.7 65,198.3 55.2,184 47.2,168.5 41.2,152.2 c 1.8,10.9 4.5,21.6 8,32 6.4,18.8 15.7,36.6 27.5,52.8 l -1.3,1.1 c -8.5,-9.2 -16.7,-18.9 -24.3,-28.9 -11.5,-15.1 -22,-31 -31.4,-47.6 l -3,-5 c 19,48.1 50,83.9 72.4,105.8 16.5,-1.1 23.6,-6.9 27,-11.3 C 133.7,228.7 98.7,187.8 85.5,137 Z"
     id="path5" />
  <path
     d="m 122.2,408.4 c 0,7.7 3.1,14 7,14 3.9,0 7,-6.3 7,-14 0,-7.7 -3.1,-14 -7,-14 -3.9,0 -7,6.3 -7,14 z"
     id="path4" />
  <path
     d="m 198.2,369.1 c 1.4,6.5 5.5,11.1 9.3,10.3 3.8,-0.8 5.7,-6.7 4.4,-13.2 -1.3,-6.5 -5.5,-11.1 -9.3,-10.3 -3.8,0.8 -5.7,6.7 -4.4,13.2 z"
     id="path3" />
  <path
     d="m 77.4,345.3 c -1.5,5.8 -0.5,11.1 2.2,11.8 2.7,0.7 6.2,-3.4 7.8,-9.2 1.6,-5.8 0.5,-11.1 -2.2,-11.8 -2.7,-0.7 -6.2,3.4 -7.8,9.2 z"
     id="path2" />
  <path
     d="m 312.3,57.4 c 1.1,0 2.3,0 3.6,0.2 8.1,0.9 14.2,5.2 17.6,8.3 4,-2.3 14.4,-9.2 18.1,-22 C 356.5,27 348,5.3 335,2.4 c -4.4,-1 -8.7,0.3 -12.3,2.2 0,0 0,0 0,0 -3.7,6.8 -8.2,17.4 -10.1,31 -1.2,8.5 -1,16 -0.3,21.9 z"
     id="path1" />
  <path
     d="m 295,57.4 c -1.1,0 -2.3,0 -3.6,0.2 -8.1,0.9 -14.2,5.2 -17.6,8.3 -4,-2.3 -14.4,-9.2 -18.1,-22 -4.9,-16.9 3.6,-38.6 16.6,-41.5 4.4,-1 8.7,0.3 12.3,2.2 0,0 0,0 0,0 3.7,6.8 8.2,17.4 10.1,31 1.2,8.5 1,16 0.3,21.9 z"
     id="Kupfer" />
</svg>
